<svg width="202" height="455" viewBox="0 0 202 455" fill="none" xmlns="http://www.w3.org/2000/svg">
<path d="M172.651 179.151C172.651 179.151 143.216 175.432 98.6156 187.605C98.6156 187.605 91.4471 107.906 92.2924 96.9503C93.1378 85.9947 161.154 89.207 161.154 89.207C161.154 89.207 162.845 121.11 167.274 140.35C171.704 159.59 174.95 175.449 172.651 179.151Z" fill="#2D5356"/>
<path opacity="0.2" d="M172.651 179.151C172.651 179.151 143.216 175.432 98.6156 187.605C98.6156 187.605 91.4471 107.906 92.2924 96.9503C93.1378 85.9947 161.154 89.207 161.154 89.207C161.154 89.207 162.845 121.11 167.274 140.35C171.704 159.59 174.95 175.449 172.651 179.151Z" fill="black"/>
<path d="M77.1094 442.999L89.1132 446.397L91.9705 427.715L93.5089 417.723L81.5052 414.325L79.4594 427.715L77.1094 442.999Z" fill="#E4897B"/>
<path d="M146.125 443.98L158.501 445.62L158.619 427.716L158.704 416.591L146.311 414.968L146.226 427.716L146.125 443.98Z" fill="#E4897B"/>
<path opacity="0.2" d="M146.311 414.968L146.226 427.716H158.619L158.703 416.591L146.311 414.968Z" fill="black"/>
<path opacity="0.2" d="M79.46 427.715H91.971L93.5095 417.723L81.5057 414.325L79.46 427.715Z" fill="black"/>
<path d="M23.8206 103.493L11.9014 99.9761L14.0824 113.586C14.0824 113.586 24.9027 116.071 25.9171 110.441L23.8206 103.493Z" fill="#E4897B"/>
<path d="M0 103.138L5.84979 114.195L14.0834 113.586L11.9024 99.9761L0 103.138Z" fill="#E4897B"/>
<path d="M40.2703 106.977L20.6922 102.598L18.917 112.099L36.6861 116.427L40.2703 106.977Z" fill="#E4897B"/>
<path d="M99.4959 98.3864L98.3463 99.7559C95.8779 102.647 89.8929 109.629 83.6543 115.648C78.5822 120.551 73.5102 124.829 70.1288 125.691C60.5427 128.159 25.6978 117.897 25.6978 117.897L29.2989 103.763C29.2989 103.763 61.76 108.074 64.2791 108.074C66.1895 108.074 85.9367 79.4677 90.7213 77.1177L99.4959 98.3864Z" fill="#2D5356"/>
<path opacity="0.2" d="M98.3444 99.7562C95.876 102.647 89.891 109.63 83.6523 115.649C84.9034 105.741 88.5384 96.6453 93.323 90.897C93.7691 90.3422 94.2799 89.8427 94.8446 89.4092L98.3444 99.7562Z" fill="black"/>
<path d="M77.2632 441.123L90.89 440.768C91.1357 440.76 91.3768 440.836 91.5735 440.984C91.7701 441.131 91.9108 441.341 91.9721 441.579L94.8462 452.552C94.9149 452.814 94.9236 453.089 94.8715 453.356C94.8195 453.622 94.7082 453.874 94.5458 454.091C94.3834 454.309 94.1741 454.487 93.9334 454.613C93.6928 454.738 93.4269 454.808 93.1555 454.817C88.2357 454.817 81.1179 454.817 74.9469 454.936C67.7108 455.138 63.1122 454.783 54.6588 454.936C49.5867 455.071 47.8961 449.965 50.0601 449.441C59.7477 447.04 66.0877 447.513 74.3383 442.103C75.209 441.523 76.2185 441.184 77.2632 441.123Z" fill="#263238"/>
<path d="M76.0793 442.88C74.0843 443.319 70.5339 443.911 69.1137 442.744C68.9067 442.573 68.7435 442.355 68.6377 442.108C68.5318 441.861 68.4864 441.592 68.5051 441.324C68.5044 441.163 68.5462 441.005 68.6264 440.866C68.7065 440.726 68.8222 440.61 68.9615 440.53C70.4662 439.634 75.5552 442.051 76.1469 442.322C76.1987 442.35 76.2419 442.391 76.2717 442.442C76.3015 442.493 76.3168 442.55 76.316 442.609C76.3132 442.675 76.2882 442.737 76.2452 442.786C76.2021 442.835 76.1436 442.868 76.0793 442.88ZM69.3166 441.003H69.2151C69.1587 441.036 69.1119 441.082 69.0792 441.139C69.0466 441.195 69.0293 441.259 69.0292 441.324C69.0151 441.499 69.0431 441.675 69.1107 441.836C69.1784 441.998 69.2837 442.141 69.418 442.254C70.2126 442.914 72.2753 442.981 75.0142 442.44C73.0361 441.612 70.2803 440.648 69.3504 441.003H69.3166Z" fill="#2D5356"/>
<path d="M76.0799 442.881H75.877C74.3385 442.239 71.2615 439.635 71.4305 438.232C71.4305 437.894 71.7011 437.471 72.5126 437.37C72.8106 437.331 73.1133 437.351 73.4034 437.429C73.6936 437.508 73.9654 437.643 74.2033 437.826C75.8939 439.094 76.2828 442.425 76.3166 442.56C76.3215 442.612 76.3131 442.663 76.2924 442.711C76.2717 442.758 76.2393 442.799 76.1982 442.831L76.0799 442.881ZM72.2928 438.029C72.0392 438.114 72.0223 438.249 72.0223 438.3C71.9208 439.145 74.0173 441.208 75.5896 442.087C75.4082 440.667 74.7807 439.341 73.7975 438.3C73.6307 438.159 73.4356 438.057 73.2256 437.998C73.0156 437.94 72.7955 437.927 72.5802 437.962C72.4817 437.97 72.3848 437.993 72.2928 438.029Z" fill="#2D5356"/>
<path d="M146.617 441.123L160.244 440.768C160.492 440.759 160.735 440.835 160.935 440.982C161.134 441.129 161.278 441.34 161.343 441.579L164.2 452.552C164.272 452.815 164.283 453.091 164.233 453.358C164.182 453.626 164.071 453.879 163.908 454.097C163.745 454.316 163.534 454.494 163.292 454.619C163.05 454.744 162.782 454.812 162.509 454.817C157.59 454.817 150.472 454.817 144.284 454.936C137.065 455.139 132.449 454.783 123.996 454.936C118.924 455.071 117.233 449.965 119.397 449.441C129.085 447.04 135.408 447.514 143.658 442.103C144.539 441.517 145.561 441.179 146.617 441.123Z" fill="#263238"/>
<path d="M145.449 442.88C143.454 443.319 139.887 443.911 138.484 442.744C138.277 442.573 138.114 442.355 138.008 442.108C137.902 441.861 137.856 441.592 137.875 441.324C137.874 441.163 137.916 441.005 137.996 440.866C138.077 440.726 138.192 440.61 138.332 440.53C139.819 439.634 144.925 442.051 145.5 442.322C145.556 442.344 145.604 442.384 145.634 442.436C145.665 442.488 145.677 442.549 145.669 442.609C145.665 442.671 145.641 442.731 145.602 442.779C145.563 442.827 145.509 442.863 145.449 442.88ZM138.687 441.003H138.585C138.529 441.035 138.484 441.082 138.454 441.139C138.424 441.196 138.411 441.26 138.416 441.324C138.399 441.499 138.426 441.676 138.494 441.838C138.562 442 138.669 442.143 138.805 442.254C139.6 442.914 141.645 442.981 144.401 442.44C142.389 441.612 139.633 440.648 138.704 441.003H138.687Z" fill="#2D5356"/>
<path d="M145.449 442.88H145.229C143.708 442.238 140.614 439.634 140.8 438.231C140.8 437.893 141.053 437.47 141.865 437.369C142.163 437.328 142.466 437.347 142.756 437.425C143.047 437.504 143.318 437.64 143.555 437.825C144.738 439.143 145.477 440.798 145.669 442.559C145.677 442.611 145.671 442.664 145.65 442.712C145.629 442.76 145.594 442.801 145.55 442.829L145.449 442.88ZM141.645 438.028C141.408 438.112 141.391 438.248 141.391 438.298C141.273 439.144 143.386 441.206 144.959 442.085C144.765 440.669 144.139 439.346 143.167 438.298C142.999 438.159 142.804 438.057 142.594 437.999C142.384 437.94 142.165 437.927 141.949 437.96L141.645 438.028Z" fill="#2D5356"/>
<path d="M171.653 171.881C178.213 200.301 166.953 423.894 166.953 423.894H145.211L135.912 237.564L101.676 423.894L78.4292 422.203C93.6453 277.853 107.052 191.679 107.052 191.679V180.791L171.653 171.881Z" fill="#263238"/>
<path opacity="0.4" d="M78.4292 422.203L101.676 423.894L128.625 277.21L135.912 237.564L145.211 423.894H166.953C166.953 423.894 178.213 200.301 171.653 171.881L107.019 180.791V191.679C107.019 191.679 93.6284 277.853 78.4292 422.203Z" fill="white"/>
<path d="M159.937 66.6191C159.27 80.2076 159.615 93.827 160.968 107.364C161.881 116.832 163.132 125.776 164.468 133.84C167.595 152.759 171.146 166.944 171.653 171.898L107.018 180.808C83.4502 114.871 92.3263 76.5603 92.3263 76.5603C97.1591 74.5648 102.111 72.8708 107.154 71.4882C108.219 71.2008 109.301 70.9303 110.417 70.6767C119.494 68.8903 128.667 67.6259 137.89 66.8896C139.581 66.7374 141.424 66.619 143.148 66.5345C151.973 66.0949 159.937 66.6191 159.937 66.6191Z" fill="#263238"/>
<path d="M125.346 36.9482C125.82 45.9934 126.783 62.9678 134.307 67.279C134.307 67.279 129.624 76.1889 119.496 77.1019C111.838 77.7782 112.345 70.2208 112.345 70.2208C116.774 66.924 115.726 61.3279 112.345 55.0047L125.346 36.9482Z" fill="#E4897B"/>
<path opacity="0.2" d="M120.038 44.3184L112.396 55.0035C113.201 56.4648 113.88 57.9919 114.425 59.5683C117.976 58.1481 122.05 52.8056 121.459 48.9339C121.273 47.3211 120.792 45.7563 120.038 44.3184Z" fill="black"/>
<path d="M92.3788 18.7408C90.9079 23.4409 91.7195 33.0778 98.2624 29.9501C104.805 26.8223 94.9148 10.6763 92.3788 18.7408Z" fill="#263238"/>
<path d="M126.193 25.0971C126.92 37.1517 127.884 44.168 122.626 50.9984C114.629 61.2608 99.1421 57.4399 94.8139 45.808C90.9254 35.3258 90.4013 17.3707 101.577 11.2843C104.054 9.93654 106.832 9.23926 109.652 9.25768C112.472 9.2761 115.242 10.0096 117.701 11.3896C120.16 12.7696 122.229 14.751 123.715 17.1483C125.2 19.5457 126.052 22.2806 126.193 25.0971Z" fill="#E4897B"/>
<path d="M117.738 18.5364V5.01095C117.738 5.01095 132.075 3.94583 131.433 11.2834C139.379 15.2227 135.626 27.5815 124.957 33.6342C119.108 28.951 119.784 17.691 119.784 17.691C119.158 18.0123 118.448 18.2828 117.738 18.5364Z" fill="#263238"/>
<path d="M132.022 34.4965C131.746 35.9711 131.177 37.3756 130.349 38.627C129.522 39.8785 128.452 40.9517 127.204 41.7833C123.822 43.9981 120.897 41.2761 120.779 37.4721C120.677 34.0907 122.284 28.7482 126.172 28.0719C127.023 27.9393 127.893 28.0197 128.705 28.3057C129.517 28.5918 130.245 29.0747 130.825 29.7112C131.404 30.3477 131.817 31.118 132.026 31.9531C132.235 32.7882 132.233 33.6621 132.022 34.4965Z" fill="#E4897B"/>
<path d="M108.388 30.4725C108.506 31.4531 108.084 32.2984 107.441 32.366C106.799 32.4337 106.19 31.7067 106.072 30.6754C105.953 29.6441 106.376 28.8494 107.001 28.7818C107.627 28.7142 108.27 29.4242 108.388 30.4725Z" fill="#263238"/>
<path d="M97.3327 31.7085C97.451 32.689 97.0283 33.5344 96.3859 33.602C95.7434 33.6696 95.1348 32.9426 95.0164 31.9113C94.8981 30.88 95.3208 30.0854 95.9632 30.0178C96.6057 29.9501 97.1805 30.7279 97.3327 31.7085Z" fill="#263238"/>
<path d="M100.899 31.7915C100.045 34.8147 98.776 37.705 97.1289 40.3802C97.8582 40.7549 98.6584 40.9713 99.4772 41.015C100.296 41.0587 101.115 40.9288 101.88 40.6338L100.899 31.7915Z" fill="#DE5753"/>
<path d="M107.577 43.7796C107.16 43.8859 106.736 43.965 106.309 44.0163C106.233 44.0163 106.16 43.986 106.106 43.9321C106.052 43.8782 106.021 43.8051 106.021 43.7288C106.021 43.6526 106.052 43.5795 106.106 43.5256C106.16 43.4717 106.233 43.4414 106.309 43.4414C107.523 43.3312 108.694 42.9372 109.728 42.2911C110.762 41.645 111.629 40.7649 112.26 39.7219C112.275 39.6877 112.296 39.6569 112.323 39.6314C112.35 39.6058 112.382 39.5861 112.417 39.5734C112.452 39.5607 112.489 39.5554 112.526 39.5576C112.563 39.5599 112.599 39.5698 112.632 39.5867C112.667 39.6029 112.698 39.626 112.724 39.6545C112.749 39.683 112.769 39.7163 112.782 39.7526C112.794 39.7888 112.799 39.8272 112.797 39.8655C112.795 39.9038 112.784 39.9412 112.767 39.9755C112.214 40.9358 111.467 41.7702 110.573 42.4252C109.68 43.0802 108.659 43.5415 107.577 43.7796Z" fill="#263238"/>
<path d="M111.364 26.5336C111.262 26.5574 111.155 26.5543 111.054 26.5247C110.953 26.4951 110.862 26.4399 110.789 26.3645C110.299 25.828 109.691 25.4128 109.014 25.1516C108.336 24.8905 107.607 24.7906 106.883 24.8598C106.809 24.877 106.732 24.8787 106.656 24.8647C106.581 24.8507 106.51 24.8214 106.446 24.7786C106.383 24.7358 106.329 24.6803 106.288 24.6158C106.247 24.5512 106.219 24.4789 106.207 24.4033C106.192 24.3289 106.193 24.2524 106.208 24.178C106.223 24.1037 106.252 24.033 106.295 23.9702C106.337 23.9073 106.392 23.8535 106.455 23.8118C106.518 23.77 106.589 23.7413 106.664 23.7271C107.576 23.6184 108.502 23.7289 109.363 24.0494C110.225 24.3699 110.998 24.8911 111.617 25.5699C111.673 25.6221 111.717 25.685 111.747 25.7547C111.777 25.8245 111.792 25.8997 111.792 25.9757C111.792 26.0517 111.777 26.1269 111.747 26.1966C111.717 26.2664 111.673 26.3293 111.617 26.3814C111.545 26.4503 111.459 26.5022 111.364 26.5336Z" fill="#263238"/>
<path d="M92.1083 28.4441C91.9994 28.4857 91.879 28.4857 91.7701 28.4441C91.6271 28.3941 91.5096 28.2898 91.4431 28.1536C91.3766 28.0175 91.3665 27.8606 91.4151 27.7171C91.6943 26.8469 92.18 26.0571 92.8306 25.4153C93.4813 24.7735 94.2775 24.2987 95.1515 24.0314C95.2995 23.9933 95.4565 24.0155 95.5881 24.0932C95.7197 24.1709 95.815 24.2976 95.8531 24.4456C95.8913 24.5936 95.869 24.7506 95.7913 24.8822C95.7136 25.0138 95.5869 25.1091 95.4389 25.1472C94.7476 25.3603 94.1193 25.74 93.6093 26.253C93.0992 26.766 92.7231 27.3965 92.514 28.089C92.4819 28.1777 92.4279 28.2567 92.3569 28.3188C92.286 28.3809 92.2004 28.424 92.1083 28.4441Z" fill="#263238"/>
<path d="M124.096 23.541C124.096 23.541 115.642 20.447 111.788 15.544C111.788 15.544 104.112 17.556 102.54 20.6161C101.822 20.0017 101.358 19.1433 101.236 18.2067C101.114 17.27 101.344 16.3215 101.88 15.544C101.88 15.544 96.1319 16.7613 94.9991 20.6161C94.0649 20.1713 93.298 19.4387 92.8111 18.5257C92.3242 17.6127 92.1429 16.5676 92.294 15.544C92.294 15.544 89.7411 16.5077 88.9127 20.6161C88.9127 20.6161 82.5727 7.39497 103.52 3.60785C101.935 3.06992 100.274 2.79023 98.6003 2.77943C98.6003 2.77943 113.225 -3.12104 124.806 2.27222C136.387 7.66549 134.375 18.1139 124.096 23.541Z" fill="#263238"/>
<path d="M176.639 183.276L156.351 185.981C156.351 185.981 147.982 127.5 144.296 108.615V68.3096L154.897 65.52L163.114 68.3096C165.367 76.4188 167.101 84.6636 168.304 92.9936C169.302 99.3167 170.198 106.079 170.992 112.927C172.091 122.259 173.004 131.761 173.782 140.654C174.999 155.008 175.811 167.705 176.25 175.465C176.504 180.334 176.639 183.276 176.639 183.276Z" fill="#2D5356"/>
<path d="M144.318 108.582C144.318 108.582 146.009 80.1281 154.919 65.453C154.919 65.453 154.699 61.2601 152.924 60.5838C151.149 59.9076 144.318 63.9652 144.318 63.9652C144.318 63.9652 140.075 61.0572 139.145 62.4098C138.215 63.7623 135.949 72.7568 144.318 108.582Z" fill="#2D5356"/>
<path opacity="0.7" d="M144.318 108.582C144.318 108.582 146.009 80.1281 154.919 65.453C154.919 65.453 154.699 61.2601 152.924 60.5838C151.149 59.9076 144.318 63.9652 144.318 63.9652C144.318 63.9652 140.075 61.0572 139.145 62.4098C138.215 63.7623 135.949 72.7568 144.318 108.582Z" fill="white"/>
<path d="M98.194 191.072L100.51 192.762C100.51 192.762 97.1289 173.911 98.5153 126.234C98.5153 123.935 98.6674 121.72 98.7519 119.606C100.443 79.2669 106.732 71.9293 107.205 71.4897L101.356 73.4847L90.755 77.1366C87.5597 111.542 98.194 191.072 98.194 191.072Z" fill="#2D5356"/>
<path d="M99.107 112.657C99.107 112.657 93.2572 84.9978 94.9986 75.4624C96.74 65.927 102.979 70.1706 102.979 70.1706C102.979 70.1706 108.71 65.5381 110.418 70.644C110.418 70.644 102.539 76.1894 99.107 112.657Z" fill="#2D5356"/>
<path opacity="0.7" d="M99.107 112.657C99.107 112.657 93.2572 84.9978 94.9986 75.4624C96.74 65.927 102.979 70.1706 102.979 70.1706C102.979 70.1706 108.71 65.5381 110.418 70.644C110.418 70.644 102.539 76.1894 99.107 112.657Z" fill="white"/>
<path opacity="0.2" d="M170.963 112.86C162.307 108.008 161.157 95.3449 161.157 95.3449C161.681 95.1421 164.894 94.0431 168.275 92.9272C169.272 99.2504 170.169 106.013 170.963 112.86Z" fill="black"/>
<path opacity="0.2" d="M128.625 277.21L135.912 237.563L134.508 216.582C134.508 216.582 124.517 252.965 128.625 277.21Z" fill="black"/>
<path opacity="0.2" d="M176.22 175.398C170.776 175.026 166.076 174.671 166.076 174.671L165.045 152.54C166.741 151.478 168.779 151.103 170.743 151.491C172.08 147.956 173.093 144.306 173.769 140.586C174.952 154.94 175.781 167.654 176.22 175.398Z" fill="black"/>
<path d="M178.079 140.571L167.479 157.596L175.864 162.415L185.822 147.08L178.079 140.571Z" fill="#E4897B"/>
<path d="M162.659 68.04C169.794 68.8178 200.124 110.442 201.46 122.987C202.796 135.532 183.64 157.19 183.64 157.19L170.859 149.666C170.859 149.666 183.843 129.699 184.519 124.306C185.196 118.913 160.765 97.1197 160.765 97.1197C158.918 92.0994 157.902 86.8115 157.756 81.464C157.418 72.3006 162.659 68.04 162.659 68.04Z" fill="#2D5356"/>
<path d="M165.028 152.556C165.028 152.556 175.933 154.889 180.329 161.753C180.329 161.753 175.764 176.04 172.501 177.595C169.238 179.151 161.157 179.151 161.157 179.151C161.157 179.151 160.633 163.258 165.028 152.556Z" fill="#2D5356"/>
</svg>
