<svg width="154" height="103" viewBox="0 0 154 103" fill="none" xmlns="http://www.w3.org/2000/svg">
<path d="M136.267 40.4004L132.885 40.9179C132.885 40.9179 135.015 47.5735 133.284 53.3654C133.7 53.3279 134.625 53.3555 135.444 54.1488C136.381 51.8556 137.801 46.916 136.267 40.4004Z" fill="#EC9B66"/>
<path d="M77.0002 88.5531C113.506 88.5531 143.099 87.515 143.099 86.2345C143.099 84.9541 113.506 83.916 77.0002 83.916C40.4948 83.916 10.9014 84.9541 10.9014 86.2345C10.9014 87.515 40.4948 88.5531 77.0002 88.5531Z" fill="#AAC1F7"/>
<path d="M17.623 77.3998C17.623 77.3998 28.3612 80.1054 36.1665 77.5825L30.8089 58.7034L22.8003 58.4717L17.623 77.3998Z" fill="#E2E2E2"/>
<path d="M29.1932 54.0476L28.2974 53.6904L28.3588 55.6318L29.1846 55.1549C29.1945 54.4516 29.1932 54.0476 29.1932 54.0476Z" fill="#5D97B7"/>
<path d="M33.1836 67.1657C33.1836 67.1657 33.1846 67.01 33.2109 66.7294C34.1228 56.9805 32.8881 52.4406 31.8171 47.4072L31.1984 47.6108L28.5365 47.9142C28.5365 47.9142 26.7022 49.9383 26.756 52.2783C26.7657 52.7002 26.8499 53.469 26.9809 54.4446L28.0149 53.578L28.2975 53.6906L28.2965 53.6569C28.2965 53.6569 29.0285 53.339 29.4652 52.8813C29.4652 52.8813 29.4751 53.8865 29.1936 55.1499L29.1847 55.1549C29.1591 56.9749 29.0576 60.8042 28.6626 64.8581C28.9476 66.4921 29.1482 67.607 29.1482 67.607C29.1482 67.607 28.6839 69.7735 28.8511 71.6369C29.0182 73.5004 31.2432 83.8979 31.2432 83.8979C31.2432 83.8979 31.8547 84.316 33.2526 83.7769C33.252 83.7769 33.6347 73.2034 33.1836 67.1657Z" fill="#003862"/>
<path d="M29.4647 52.8809C29.0279 53.3386 28.2959 53.6564 28.2959 53.6564L28.2969 53.6902L29.1928 54.0474C29.1928 54.0474 29.194 54.4514 29.1842 55.1549L29.193 55.1499C29.4745 53.8861 29.4647 52.8809 29.4647 52.8809Z" fill="#023351"/>
<path d="M29.1929 54.0478L28.0145 53.5781L26.9805 54.4448C27.3636 57.2958 28.1492 61.9182 28.6619 64.8585C29.21 59.238 29.1929 54.0478 29.1929 54.0478Z" fill="#023351"/>
<path d="M23.6462 47.4911C23.6462 47.4911 22.4629 49.4926 21.9411 52.5597C21.1845 57.0089 22.5354 66.9506 22.5354 66.9506C22.5354 66.9506 21.7964 68.8819 21.7212 70.7514C21.6461 72.6208 22.5559 83.3536 22.5559 83.3536C22.5559 83.3536 22.9941 83.7497 24.4499 83.3969C24.4499 83.3969 26.0336 73.0534 26.3663 67.0079C26.3663 67.0079 27.7911 59.8459 28.2188 54.527L28.8506 47.4072L23.6462 47.4911Z" fill="#003862"/>
<path d="M35.5424 84.4957C36.4876 84.4957 37.3619 84.576 37.2481 85.6351L35.1172 85.6274L33.9585 85.6233L34.9367 84.3984L35.5424 84.4957Z" fill="#003C61"/>
<path d="M33.1573 84.1784L31.9824 85.6156L30.7368 85.6111L30.8208 83.5379L30.8157 83.5373L30.8142 83.4862C30.8142 83.3589 30.9167 83.2555 31.0436 83.2549C31.705 83.5692 32.1774 83.5938 32.7201 83.458C33.1053 83.3618 33.5115 83.4875 33.7606 83.7977L33.9024 83.9747C33.6053 84.208 33.1573 84.1784 33.1573 84.1784Z" fill="#003C61"/>
<path d="M33.1573 84.1781C33.1573 84.1781 33.6056 84.2078 33.9023 83.9746L34.1386 84.2692L34.9372 84.3975L33.959 85.6224L31.9824 85.6154L33.1573 84.1781Z" fill="#003C61"/>
<path d="M37.2642 86.1157H30.7369L30.7295 85.5391H37.2568L37.2642 86.1157Z" fill="#00273D"/>
<path d="M22.1221 84.3426C22.1301 84.1096 22.1381 83.8832 22.1461 83.8302C22.2059 83.4382 22.5367 83.1453 22.9317 83.1346L23.9477 83.1068C24.3951 83.0944 24.7694 83.4454 24.7873 83.8943V84.1353C25.4181 84.6633 25.4017 85.5376 25.4017 85.5376H21.7139C21.7139 85.5376 21.7007 84.8644 22.1221 84.3426Z" fill="#003C61"/>
<path d="M25.3987 86.1158H21.7109L21.7136 85.5371H25.4014L25.3987 86.1158Z" fill="#00273D"/>
<path d="M26.1197 14.6182C23.5709 14.6182 20.8821 16.8228 21.642 21.6321C22.4018 26.4413 17.6368 26.1008 17.0637 29.6152C16.4906 33.1295 19.1747 32.2336 18.5717 36.6439C17.9684 41.0539 23.1557 41.0428 25.7795 38.6868C28.4032 36.331 32.212 40.4199 33.5799 38.2328C34.9478 36.0457 33.1586 34.9429 33.3294 32.5305C33.5002 30.118 34.9476 28.2727 33.2286 26.9635C31.5095 25.6544 31.2629 23.1288 31.6268 20.5866C32.0136 17.8831 30.4629 14.6182 26.1197 14.6182Z" fill="#00273D"/>
<path d="M24.6888 29.7019C25.005 29.4617 25.8914 29.1923 26.0109 29.2287C26.1218 29.1704 27.0427 29.2689 27.3979 29.4454C28.4523 29.9693 29.4921 30.2826 30.304 30.6888C30.1297 31.2154 30.0246 31.7944 29.8909 32.2625C29.6568 33.0822 29.4968 33.8893 29.3595 34.7087L26.5501 34.9631L21.1112 35.4781C20.0376 35.5797 19.8659 34.2014 19.8659 34.2014C19.6866 32.2718 22.7646 31.1635 24.6888 29.7019Z" fill="#F9A37E"/>
<path d="M28.4686 20.2979C26.5126 20.3065 24.5566 20.3135 22.6006 20.3178L23.687 25.2944C23.85 26.4196 24.6808 27.9093 27.3409 27.995C27.3409 27.995 28.4986 24.3884 28.3355 23.2632L28.4686 20.2979Z" fill="#E37B58"/>
<path d="M23.8379 20.3161L24.1069 24.1088C24.0594 26.1735 25.3165 27.9515 27.3746 27.9991L27.4421 28.0065C28.9367 28.0411 30.1388 26.7942 30.1732 25.2947L30.5585 20.2881C28.3183 20.2998 26.0781 20.3099 23.8379 20.3161Z" fill="#F9A37E"/>
<path d="M29.7179 22.4053C29.7323 22.7955 29.5465 23.1191 29.303 23.1282C29.0594 23.1371 28.8506 22.8281 28.8362 22.4379C28.8219 22.0477 29.0077 21.7241 29.2512 21.715C29.4947 21.706 29.7038 22.015 29.7179 22.4053Z" fill="#00273D"/>
<path d="M26.2469 22.4686C26.2808 22.8576 26.1114 23.1903 25.8687 23.2115C25.626 23.2327 25.4018 22.9346 25.3681 22.5457C25.3342 22.1568 25.5036 21.8241 25.7463 21.8028C25.9888 21.7814 26.213 22.0797 26.2469 22.4686Z" fill="#00273D"/>
<path d="M21.9685 23.8033C22.2981 24.5289 22.9385 24.946 23.3989 24.7355C23.4443 24.7147 23.4862 24.6885 23.5248 24.6576C23.8759 24.3752 23.9328 23.6942 23.6356 23.0403C23.3061 22.3148 22.6656 21.8976 22.2053 22.1084C21.7449 22.3189 21.639 23.0778 21.9685 23.8033Z" fill="#E37B58"/>
<path d="M24.9819 23.1745C24.9819 23.1745 25.1444 22.8183 25.8016 22.7594C26.4587 22.7005 26.9903 23.2351 26.9903 23.2351L26.0378 23.6209L24.9819 23.1745Z" fill="#F9A37E"/>
<path d="M28.3042 23.114C28.3042 23.114 28.4666 22.7578 29.1239 22.6989C29.7812 22.64 30.3128 23.1745 30.3128 23.1745L29.3602 23.5604L28.3042 23.114Z" fill="#F9A37E"/>
<path d="M25.6917 21.8907L25.1519 21.8369L25.4796 22.1816L25.6917 21.8907Z" fill="#00273D"/>
<path d="M29.3315 21.7666L29.874 21.7693L29.511 22.0779L29.3315 21.7666Z" fill="#00273D"/>
<path d="M25.7352 21.8666L25.4699 21.6602L25.4974 21.9692L25.1519 22.1039L25.4317 22.3134L25.7352 21.8666Z" fill="#00273D"/>
<path d="M29.335 21.7896L29.6005 21.583L29.5729 21.892L29.9183 22.0267L29.5912 22.1668L29.335 21.7896Z" fill="#00273D"/>
<path d="M27.9928 26.0815C28.2977 26.0815 28.5381 26.0498 28.5533 26.0477L28.5193 25.7925C28.5141 25.7933 27.9897 25.8623 27.5281 25.7927C27.0959 25.7276 26.8166 25.4277 26.8138 25.4248L26.624 25.5983C26.6376 25.6133 26.9647 25.9684 27.4899 26.0475C27.6597 26.0731 27.8349 26.0815 27.9928 26.0815Z" fill="#E37B58"/>
<path d="M26.4215 25.8509C26.9075 25.6478 26.986 25.1858 26.9891 25.1662L26.7359 25.125C26.7334 25.1388 26.6735 25.467 26.3228 25.6136L26.4215 25.8509Z" fill="#E37B58"/>
<path d="M19.6044 38.16C19.7345 38.1357 19.8596 38.0867 19.9791 38.0238C20.5596 38.1643 21.5281 37.5348 22.0813 37.6454C21.9912 39.1189 21.3341 42.2792 21.1661 43.7789C21.1661 43.7789 21.4242 45.666 21.5158 47.4071C21.6062 49.1272 21.3795 52.1262 21.3795 52.1262L20.1341 55.2697C20.1341 55.2697 18.7988 47.5909 18.5225 43.6295C18.5225 43.6295 18.7528 39.9444 19.1801 37.5117C19.3348 37.5321 19.4428 38.1901 19.6044 38.16Z" fill="#F9A37E"/>
<path d="M26.3839 31.2669C27.1769 31.2414 27.7992 30.5758 27.774 29.7802L27.6596 26.1934L24.7876 26.2854L24.902 29.8725C24.9274 30.6679 25.5909 31.2923 26.3839 31.2669Z" fill="#F9A37E"/>
<path d="M32.345 39.2918C33.6277 37.623 32.8663 36.0791 32.1563 35.1137C31.6002 34.3579 31.183 33.5096 30.8976 32.615L30.0565 30.1543L27.9365 34.7376L22.7799 30.9927L21.5161 35.4475L24.3296 47.592C25.4166 47.7595 29.5826 48.3151 31.8171 47.4068C31.646 45.649 31.6495 40.1966 32.345 39.2918Z" fill="#00BBCD"/>
<path d="M32.1429 39.5488C32.1429 39.5488 31.362 40.364 29.3984 40.0204C29.3984 40.0204 30.4812 40.9078 31.847 40.5214L32.1429 39.5488Z" fill="#DE2222"/>
<path d="M22.7676 30.9336L22.7604 30.9381L22.7795 30.9929C22.7795 30.9929 20.6009 32.8389 20.2933 34.945C20.1215 36.1209 20.0061 37.9296 19.9375 39.2982C20.4122 39.4838 21.0582 39.607 21.9865 39.5693C21.9976 39.5256 22.0087 39.4824 22.02 39.4385C22.3023 38.3302 22.5873 37.1562 22.8707 35.9087L23.3105 32.9823L22.7676 30.9336Z" fill="#00BBCD"/>
<path d="M22.7797 30.9933L22.7606 30.9385L21.0323 32.0292C20.1946 32.6178 19.2347 34.0973 19.1778 35.1219C19.1147 36.2566 19.0221 37.3401 18.9088 38.3722C18.9 38.4538 18.8901 38.5329 18.8809 38.6138C19.1252 38.8363 19.4357 39.1025 19.9375 39.2988C20.0061 37.9301 20.1215 36.1214 20.2933 34.9456C20.6011 32.8392 22.7797 30.9933 22.7797 30.9933Z" fill="#DE2222"/>
<path d="M28.2748 24.5183C28.3425 24.5021 28.9345 24.3494 28.8515 23.9706C28.7932 23.7065 28.5019 23.6309 28.3335 23.6091L28.1744 22.7305L27.9033 22.7799L28.1021 23.875L28.2156 23.8767C28.3206 23.8781 28.5583 23.9189 28.583 24.0299C28.5976 24.0965 28.3908 24.2063 28.2113 24.2495L28.2748 24.5183Z" fill="#E37B58"/>
<path d="M23.025 22.2626C23.6788 22.9284 23.7572 23.3773 23.7572 23.3773C23.7572 23.3773 23.6997 21.0928 25.2124 20.7961C26.7251 20.4995 28.038 21.3719 29.994 20.3164C29.994 20.3164 30.7983 21.4619 30.6677 23.1721C30.5373 24.8823 31.2806 19.7144 31.2806 19.7144C31.2806 19.7144 30.0416 18.8379 29.7809 18.8379C29.5201 18.8379 24.5122 18.8379 24.5122 18.8379L21.7764 19.1518L21.8519 19.9237L23.025 22.2626Z" fill="#00273D"/>
<path d="M24.3034 29.9808C24.3034 29.9808 23.6521 30.2478 23.0587 30.6565C22.4653 31.0652 21.7104 32.1076 21.7104 32.1076L25.7693 35.7361L28.8209 35.8599L29.815 33.4721L28.1495 29.7891C28.0516 34.2131 25.4387 31.6979 24.3034 29.9808Z" fill="#00BBCD"/>
<path d="M29.9721 32.066C29.9721 32.066 30.1117 31.0152 30.1505 30.131C29.4158 29.9743 28.7612 29.8733 28.4134 29.8243C28.26 29.8033 28.1489 29.7891 28.1489 29.7891L29.8144 33.4721L30.1719 32.6135L29.9721 32.066Z" fill="#00BBCD"/>
<path d="M24.0747 77.582C24.0747 77.582 27.7957 42.995 26.6239 38.1299L23.0587 30.6562C23.0587 30.6562 20.8795 31.3418 19.6787 33.0562C19.6787 33.0562 17.7619 37.5391 18.3508 43.7597C18.3508 43.7597 19.1586 52.5963 19.8403 55.112L21.8033 54.6023L21.5165 52.0481C21.5165 52.0481 21.867 45.6191 21.3128 43.7599L22.2076 39.6343L23.677 47.6554C23.677 47.6554 19.9791 47.7909 17.6235 77.3995C17.6235 77.3995 20.4499 77.7643 24.0747 77.582Z" fill="white"/>
<path d="M22.1161 39.5349L23.5857 47.5559C23.5857 47.5559 19.8878 47.6914 17.5322 77.3C17.5322 77.3 20.3591 77.665 23.9836 77.4827C23.9836 77.4827 27.7046 42.8957 26.5328 38.0306L23.0584 30.6562C23.0584 30.6562 21.3403 31.4125 20.1395 33.127" fill="white"/>
<path d="M27.5884 37.9562L29.8144 30.0557L31.8281 30.4973C32.631 30.6735 33.2098 31.3772 33.2299 32.2014L33.3704 37.956C33.3704 37.956 33.5248 39.4793 32.4583 40.2601C32.4583 40.2601 31.8441 44.9933 32.1433 47.2346C32.1433 47.2346 36.1206 57.8685 36.1668 77.5819L29.1674 77.7836L27.5884 37.9562Z" fill="white"/>
<path d="M32.4581 40.2607C32.4581 40.2607 31.6848 41.114 29.7212 40.7704C29.7212 40.7704 30.9715 41.6935 32.3375 41.307L32.4581 40.2607Z" fill="#E2EAED"/>
<path d="M26.7691 41.0455C26.7691 41.0455 24.7766 41.8007 23.6694 40.8311L24.2164 41.804C24.2164 41.804 25.7798 42.0226 26.7691 41.0455Z" fill="#E2EAED"/>
<path d="M22.207 39.6349L22.8612 37.2227C23.2154 39.1883 23.4331 40.4482 24.2162 41.8043C24.2497 41.9075 24.4144 42.7062 24.4507 42.8069C24.7743 43.7067 24.6166 46.7015 24.7562 47.7194C24.4041 47.6763 23.8669 47.6852 23.6768 47.6557L22.207 39.6349Z" fill="#E2EAED"/>
<path d="M26.7202 58.0747L19.1452 60.8448C18.9321 60.9227 18.6963 60.8127 18.6187 60.5988L16.7368 55.419C16.6592 55.2052 16.7689 54.9687 16.982 54.8908L24.557 52.1207C24.7701 52.0428 25.0058 52.1529 25.0834 52.3667L26.9653 57.5463C27.0431 57.7604 26.9333 57.9969 26.7202 58.0747Z" fill="#00273D"/>
<path d="M26.0221 57.8178L19.5147 60.1975C19.3016 60.2754 19.0658 60.1654 18.9882 59.9515L17.4351 55.6768C17.3575 55.463 17.4671 55.2265 17.6803 55.1487L24.1877 52.7692C24.4008 52.6913 24.6365 52.8013 24.7142 53.0151L26.2673 57.2898C26.3449 57.5034 26.2353 57.7399 26.0221 57.8178Z" fill="white"/>
<path d="M25.5928 56.5955L26.4995 56.2641L25.5887 53.7568L24.6819 54.0885C24.6031 54.1173 24.5626 54.2047 24.5912 54.2838L25.3981 56.5047C25.4269 56.5836 25.5139 56.6244 25.5928 56.5955Z" fill="#CCCDCE"/>
<path d="M26.3623 55.8867L26.6927 55.766C26.7648 55.7396 26.8019 55.6595 26.7757 55.5872L26.2342 54.0966C26.2079 54.0243 26.128 53.987 26.056 54.0133L25.7256 54.1341L26.3623 55.8867Z" fill="#CCCDCE"/>
<path d="M23.9205 23.6454C23.9205 23.6454 28.359 22.9424 30.3544 23.8586C30.3544 23.8586 30.7741 27.957 27.6346 27.9585C23.6119 27.9601 23.9205 23.6454 23.9205 23.6454Z" fill="white"/>
<path d="M24.2805 24.0798C24.2809 23.6699 23.8015 23.0974 23.4009 22.6807C23.4475 22.7561 23.5391 22.8784 23.5777 22.9633C23.6516 23.126 23.7081 23.2836 23.7372 23.4427C23.9076 23.6777 24.0253 23.9041 24.0253 24.0796L24.2805 24.0798Z" fill="white"/>
<path d="M23.3731 22.7538C23.3647 22.7449 23.3561 22.7354 23.3477 22.7266C23.3314 22.7558 23.3224 22.7704 23.3224 22.7704L23.0312 22.7733C23.2489 22.9882 23.4793 23.2389 23.6544 23.4803C23.6253 23.3213 23.5756 23.1571 23.5017 22.9944C23.4629 22.9095 23.4197 22.8291 23.3731 22.7538Z" fill="#E17B58"/>
<path d="M25.2007 26.2557L25.2335 26.0017C24.4442 25.8979 23.7642 24.9696 23.5342 24.5947L23.6375 25.0677C23.6391 25.0875 23.6617 25.1688 23.664 25.1888C23.9808 25.6097 24.4385 26.0703 25.0302 26.2227C25.0861 26.237 25.143 26.2483 25.2007 26.2557Z" fill="white"/>
<path d="M22.9087 24.6704C22.9087 24.8589 23.061 25.0118 23.2489 25.0118C23.4368 25.0118 23.5892 24.8589 23.5892 24.6704C23.5892 24.482 23.4368 24.3291 23.2489 24.3291C23.061 24.3291 22.9087 24.482 22.9087 24.6704Z" fill="white"/>
<path d="M24.3804 64.0232L20.5586 63.6055L20.4458 64.6445L24.2675 65.0623L24.3804 64.0232Z" fill="#E2E2E2"/>
<path d="M34.923 63.6995L31.0854 63.9316L31.1482 64.975L34.9857 64.7428L34.923 63.6995Z" fill="#E2E2E2"/>
<path d="M22.0371 55.7092C22.1934 55.8131 22.3913 55.9777 22.602 56.1392C23.2837 56.6618 23.456 56.1657 23.456 56.1657L22.7334 55.4701L22.1965 54.9326C21.902 54.4395 20.732 53.498 20.732 53.498L20.0949 53.887L20.015 54.5414C20.0054 54.5655 19.9924 54.5878 19.9885 54.6146L19.8653 55.7688V55.7694L19.6996 57.3218C19.6715 57.5093 19.6857 57.6866 19.8727 57.7149L19.907 57.72C20.0939 57.7482 20.1479 57.581 20.1758 57.3935L20.3045 56.7403L20.169 58.0103C20.1411 58.1977 20.1553 58.3751 20.3421 58.4033L20.3764 58.4085C20.5633 58.4367 20.6173 58.2694 20.6454 58.082L20.6708 57.9526L20.6335 58.6567C20.6154 58.8454 20.639 59.0217 20.8271 59.0399L20.8616 59.0432C21.0497 59.0613 21.0947 58.8915 21.1127 58.7026L21.2478 57.7542L21.284 58.4651C21.2856 58.6548 21.3273 58.8277 21.5164 58.826L21.5511 58.8258C21.74 58.8242 21.7673 58.6507 21.7655 58.461L21.8556 56.0654C21.9049 55.935 21.9712 55.8178 22.0371 55.7092Z" fill="#EEF0F6"/>
<path d="M19.7577 33.0566C19.7577 33.0566 17.8409 37.5396 18.4298 43.7602C18.4298 43.7602 19.2376 52.5968 19.9193 55.1124L21.8823 54.6028L21.5954 52.0486C21.5954 52.0486 21.9459 45.6195 21.3917 43.7604L22.2375 39.5226" fill="white"/>
<path d="M32.4018 56.0774C32.2455 56.1812 32.0476 56.3458 31.8369 56.5073C31.1552 57.03 30.9829 56.5339 30.9829 56.5339L31.7055 55.8382L32.2424 55.3008C32.5369 54.8076 33.7069 53.8662 33.7069 53.8662L34.344 54.2551L34.4239 54.9096C34.4335 54.9337 34.4465 54.956 34.4504 54.9827L34.5736 56.137V56.1376L34.7393 57.69C34.7672 57.8774 34.7532 58.0548 34.5662 58.083L34.5319 58.0882C34.345 58.1164 34.291 57.9491 34.2631 57.7617L34.1344 57.1084L34.2699 58.3784C34.2978 58.5659 34.2836 58.7433 34.0968 58.7715L34.0625 58.7766C33.8756 58.8049 33.8216 58.6376 33.7935 58.4501L33.7681 58.3208L33.8054 59.0249C33.8235 59.2136 33.7999 59.3899 33.6118 59.408L33.5773 59.4113C33.3892 59.4294 33.3442 59.2597 33.3262 59.0708L33.1911 58.1224L33.1549 58.8333C33.1533 59.023 33.1116 59.1958 32.9225 59.1942L32.8878 59.194C32.6989 59.1923 32.6716 59.0189 32.6734 58.8292L32.5833 56.4336C32.534 56.3034 32.4677 56.186 32.4018 56.0774Z" fill="#EEF0F6"/>
<path d="M32.1436 30.5996C32.1436 30.5996 35.6143 31.3966 36.0547 43.7605C36.0547 43.7605 35.247 52.5971 34.5653 55.1128L32.6025 54.6031L32.8893 52.0489C32.8893 52.0489 32.5388 45.6199 33.093 43.7607L32.4585 39.5499" fill="white"/>
<path d="M30.4167 42.5526C30.3528 42.4061 28.8625 38.943 29.7124 37.1945C29.9395 36.7273 30.3149 36.4235 30.8278 36.2912C31.3374 36.1596 31.7961 36.2457 32.1916 36.5468C33.6875 37.6852 33.7868 41.5275 33.7903 41.6907L33.585 41.695C33.5842 41.6561 33.4846 37.7892 32.0674 36.7108C31.7197 36.4461 31.3308 36.374 30.8789 36.4906C30.4268 36.607 30.0964 36.8742 29.897 37.2845C29.0884 38.9478 30.5896 42.4349 30.6048 42.47L30.4167 42.5526Z" fill="#727272"/>
<path d="M27.75 29.3037L27.7597 29.5966C29.7306 31.4807 30.7388 36.3574 30.7495 36.4109L30.9579 36.3714C30.9121 36.1448 29.8734 31.1173 27.75 29.3037Z" fill="#727272"/>
<path d="M23.2701 39.619L23.4754 39.5661C21.841 33.5993 23.6477 30.5936 24.8816 29.4628L24.8731 29.208C23.583 30.3109 21.5644 33.3927 23.2701 39.619Z" fill="#727272"/>
<path d="M33.2622 41.2244L33.7636 41.5087C33.8761 41.5724 33.8729 41.7359 33.7581 41.7953L33.2201 42.0732C33.108 42.131 32.9755 42.0441 32.9838 41.9178L33.0203 41.3554C33.0281 41.2358 33.1579 41.1653 33.2622 41.2244Z" fill="#00273D"/>
<path d="M30.984 41.8948L31.2125 42.4125C31.2643 42.5295 31.1673 42.6578 31.0411 42.6397L30.4382 42.5525C30.3109 42.5342 30.2544 42.3816 30.339 42.2843L30.7131 41.8536C30.7912 41.764 30.9359 41.7858 30.984 41.8948Z" fill="#00273D"/>
<path d="M22.4488 39.8302C22.5843 40.325 23.1079 40.6195 23.6179 40.4881C24.1282 40.3567 24.4319 39.8491 24.2964 39.3543C24.1608 38.8595 23.6374 38.5649 23.1272 38.6963C22.6171 38.8278 22.3132 39.3353 22.4488 39.8302Z" fill="#00273D"/>
<path d="M122.011 52.5713L126.808 52.9631C126.817 54.552 126.94 58.7875 126.871 61.0169C126.727 65.6455 126.73 71.2806 126.612 75.929C126.533 79.0553 126.635 81.9908 126.754 83.7267L124.39 83.7135C123.595 77.4954 121.887 59.3524 122.011 52.5713Z" fill="#EC9B66"/>
<path d="M135.621 83.4335L133.478 83.4489C133.478 83.4489 125.473 53.1039 125.864 53.1008L131.836 52.9346C131.844 53.8408 135.621 83.4335 135.621 83.4335Z" fill="#EC9B66"/>
<path d="M121.213 52.6875L127.553 53.0595C127.553 53.0686 127.553 53.0787 127.553 53.0878L125.391 53.1656C125.255 53.1667 126.152 59.0002 127.38 63.4001C127.312 65.3307 126.985 79.7297 126.909 81.7553C126.909 81.7553 126.714 82.5431 123.957 81.7768C123.369 76.3291 121.152 56.0346 121.213 52.6875Z" fill="white"/>
<path d="M122.01 52.5714C121.995 50.4199 124.256 48.6592 127.06 48.6389C129.865 48.6185 132.151 50.3462 132.166 52.4976C132.168 52.7036 132.142 52.9045 132.103 53.1023C132.222 54.2855 134.713 75.4905 135.61 81.7987C135.017 81.9602 133.354 81.989 132.701 81.8213C132.41 80.8045 128.487 67.3404 128.199 66.318C127.915 65.3146 127.64 64.3346 127.38 63.4008C126.895 61.6642 125.858 58.2547 125.52 56.9814C123.187 56.6446 122.024 54.4629 122.01 52.5714Z" fill="white"/>
<path d="M124.746 52.9786C127.919 53.4864 130.903 52.5511 132.267 52.018L132.204 52.9534C132.193 53.1217 132.08 53.2662 131.92 53.3166C130.504 53.762 123.808 55.6599 121.057 52.665C120.992 52.5934 120.956 52.4998 120.953 52.4024C120.937 51.8651 120.916 51.3094 120.893 50.7412C121.69 51.7354 122.91 52.6848 124.746 52.9786Z" fill="#003C61"/>
<path d="M128.441 31.5037C128.33 32.723 125.014 33.5891 125.091 31.6255L125.403 27.7059L128.533 27.5166C128.279 29.2124 128.209 30.6494 128.441 31.5037Z" fill="#E07B4D"/>
<path d="M124.89 30.1701C124.89 30.1701 124.428 26.5229 124.784 25.4791L125.388 21.1824C125.744 20.1384 126.614 19.2225 127.606 19.385L130.038 19.784C131.03 19.9466 131.75 21.1939 131.394 22.2379L129.085 28.3019C128.729 29.3457 127.442 30.565 124.89 30.1701Z" fill="#E07B4D"/>
<path d="M124.857 30.1673L124.791 30.1624C123.36 29.9275 122.611 28.3403 122.845 26.9041L123.486 20.3792C123.545 20.0117 123.894 19.7604 124.26 19.8204L129.116 20.6168C129.482 20.6769 130.181 21.1029 130.121 21.4704L128.851 27.0691C128.528 29.0469 126.829 30.4908 124.857 30.1673Z" fill="#EC9B66"/>
<path d="M123.618 24.4125C123.535 24.7821 123.655 25.124 123.885 25.1761C124.116 25.2283 124.37 24.971 124.453 24.6014C124.536 24.2318 124.417 23.8899 124.186 23.8378C123.956 23.7856 123.701 24.0429 123.618 24.4125Z" fill="#17213F"/>
<path d="M126.918 25.0956C126.816 25.4604 126.918 25.8082 127.146 25.8718C127.374 25.9355 127.641 25.6914 127.742 25.3263C127.844 24.9615 127.741 24.614 127.514 24.5501C127.286 24.4865 127.019 24.7306 126.918 25.0956Z" fill="#17213F"/>
<path d="M123.753 22.9428C124.1 22.9597 124.421 23.0176 124.745 23.1243C124.881 23.1692 125.026 23.0847 125.058 22.9446L125.058 22.9442C125.085 22.8272 125.025 22.7038 124.913 22.6604C124.539 22.5141 124.154 22.4432 123.757 22.4496C123.637 22.4517 123.539 22.5479 123.524 22.6678C123.508 22.8081 123.612 22.936 123.753 22.9428Z" fill="#603E1D"/>
<path d="M127.074 23.7152C127.459 23.7521 127.812 23.8343 128.166 23.9729C128.299 24.025 128.448 23.9472 128.487 23.8092L128.496 23.7774C128.529 23.6619 128.476 23.5354 128.366 23.4859C127.964 23.3032 127.545 23.2039 127.11 23.1905C126.989 23.1868 126.886 23.2779 126.865 23.3972L126.86 23.4289C126.836 23.5679 126.934 23.7018 127.074 23.7152Z" fill="#603E1D"/>
<path d="M127.886 26.047C127.886 26.047 127.809 25.6963 127.231 25.5165C126.653 25.3365 126.074 25.7132 126.074 25.7132L126.853 26.2433L127.886 26.047Z" fill="#EC9B66"/>
<path d="M124.919 25.3506C124.919 25.3506 124.842 25 124.264 24.8201C123.687 24.6403 123.107 25.0169 123.107 25.0169L123.887 25.5469L124.919 25.3506Z" fill="#EC9B66"/>
<path d="M129.519 22.0209C129.519 22.0209 126.979 22.1048 125.283 21.7531C123.588 21.4015 123.207 21.0099 123.207 21.0099C123.207 21.0099 123.262 20.6094 123.403 20.1193C123.689 19.119 124.677 18.4921 125.701 18.6613C126.11 18.7288 126.632 18.8135 127.284 18.9169C129.388 19.2504 130.948 19.4428 131.604 20.9631C132.26 22.4836 131.151 24.552 130.295 25.987L129.71 25.8346C129.71 25.8346 129.736 24.8963 129.519 22.0209Z" fill="#603E1D"/>
<path d="M130.761 27.1353C130.317 27.7682 129.632 28.0514 129.23 27.768C129.191 27.7399 129.155 27.7076 129.124 27.6711C128.84 27.3391 128.907 26.6793 129.306 26.1088C129.75 25.476 130.435 25.1928 130.837 25.4762C131.238 25.7597 131.204 26.5025 130.761 27.1353Z" fill="#E07B4D"/>
<path d="M123.798 27.8434C123.767 27.7142 123.746 27.5949 123.734 27.502C123.722 27.4163 123.807 27.3508 123.886 27.3854C124.031 27.4491 124.255 27.5407 124.513 27.6219C124.851 27.7288 125.587 27.7101 125.934 27.694C126.02 27.6901 126.077 27.7807 126.037 27.8565C125.984 27.9542 125.907 28.0835 125.81 28.2183C125.461 28.1971 124.829 28.1503 124.498 28.0728C124.288 28.0238 124.025 27.9311 123.798 27.8434Z" fill="white"/>
<path d="M124.88 28.5C125.116 28.4613 125.387 28.5031 125.537 28.5336C125.297 28.7678 124.99 28.9513 124.627 28.9173C124.546 28.9097 124.474 28.8836 124.407 28.8502C124.531 28.6957 124.701 28.5292 124.88 28.5Z" fill="white"/>
<path d="M123.797 27.8428C124.024 27.9305 124.287 28.0232 124.498 28.0723C124.829 28.1497 125.461 28.1965 125.809 28.2175C125.732 28.324 125.64 28.4328 125.537 28.5333C125.386 28.5026 125.116 28.461 124.879 28.4997C124.7 28.529 124.53 28.6954 124.407 28.8501C124.064 28.6806 123.886 28.2198 123.797 27.8428Z" fill="white"/>
<path d="M132.972 83.4976L131.698 79.1877C131.703 79.0503 131.832 78.9419 131.987 78.9444L135.791 78.9858C135.928 78.988 136.043 79.0764 136.065 79.1961C136.097 79.3774 136.486 83.3672 136.533 83.6305C136.87 83.8754 137.093 84.2757 137.098 84.7326L137.107 85.5755L132.16 85.6114L132.151 84.7684C132.145 84.1933 132.486 83.7013 132.972 83.4976Z" fill="#003C61"/>
<path d="M132.165 86.0524L137.112 86.0166L137.105 85.5273L132.158 85.5634L132.165 86.0524Z" fill="#003C61"/>
<path d="M119.553 86.1154L127.54 86.0575C127.605 86.0571 127.653 85.998 127.64 85.9347L127.568 85.5703L119.408 85.6294L119.404 85.9654C119.403 86.0484 119.471 86.116 119.553 86.1154Z" fill="#003C61"/>
<path d="M121.433 84.3763L121.561 84.3546C124.796 84.0471 122.739 79.4459 123.639 79.0054C123.728 78.962 124.035 79.0026 124.035 79.0026C124.88 79.3841 126.115 79.5132 127.191 78.9925C127.342 78.9921 127.464 79.1138 127.465 79.2648L127.454 83.3172C127.454 83.379 127.455 83.4406 127.459 83.5022L127.585 85.6555L119.419 85.7425C119.275 84.4873 120.311 84.3843 121.433 84.3763Z" fill="#003C61"/>
<path d="M129.739 25.6719L129.734 25.6705C129.734 25.6705 129.735 25.635 129.734 25.5996C129.121 25.9395 128.416 26.4292 128.272 26.9087L128.565 26.9973C128.633 26.7722 128.891 26.5254 129.216 26.2928C129.251 26.2306 129.288 26.1684 129.33 26.1078C129.452 25.9344 129.592 25.7885 129.739 25.6719Z" fill="white"/>
<path d="M129.232 27.7441C128.872 28.1813 128.342 28.6746 127.744 28.7414L127.775 29.0236C127.839 29.0166 127.902 29.0055 127.965 28.9906C128.6 28.8401 129.138 28.3133 129.499 27.864C129.41 27.8488 129.327 27.8164 129.254 27.7649C129.246 27.7588 129.24 27.7505 129.232 27.7441Z" fill="white"/>
<path d="M125.132 26.7104C125.091 26.7007 124.728 26.6107 124.602 26.3968C124.558 26.3212 124.547 26.237 124.57 26.1533C124.648 25.8742 124.998 25.8338 125.156 25.8303L125.422 25.0234L125.611 25.0859L125.298 26.0351L125.222 26.03C125.217 26.03 124.817 26.0091 124.761 26.2071C124.753 26.2388 124.756 26.2662 124.773 26.2953C124.844 26.4152 125.095 26.497 125.177 26.5161L125.132 26.7104Z" fill="#E07B4D"/>
<path d="M128.922 26.8825C128.922 26.8825 125.093 25.5237 122.879 25.9652C122.879 25.9652 122 29.7861 124.702 30.1338C128.791 30.6601 128.922 26.8825 128.922 26.8825Z" fill="white"/>
<path d="M126.465 34.7283C129.339 34.505 130.409 32.7338 130.781 31.765C130.313 31.4997 129.847 31.2321 129.406 30.9521C129.447 31.2737 129.447 31.6789 129.328 32.1385C129.034 33.2779 126.895 33.9 125.849 33.7105C125.726 33.6882 125.61 33.6557 125.5 33.617L125.844 33.1108L124.376 31.2253C124.376 31.2253 123.793 31.3866 122.884 31.8866C123.026 33.0362 123.641 34.9477 126.465 34.7283Z" fill="#003C61"/>
<path d="M120.506 40.8809C120.551 45.1309 120.747 47.2156 120.893 50.7411C121.69 51.7355 122.91 52.6849 124.746 52.9787C127.919 53.4863 130.903 52.5512 132.266 52.0181L132.533 50.5005L132.949 41.0659C133.099 42.1859 133.193 43.2889 133.244 44.352C133.782 44.4989 135.622 44.9103 137.235 44.2002C137.329 42.76 137.309 41.4975 137.1 40.6696C136.772 38.8215 135.44 34.9498 133.504 33.482C132.736 32.8611 131.756 32.3183 130.781 31.7656C130.408 32.7344 129.339 34.5058 126.465 34.7289C123.641 34.9483 123.026 33.0369 122.884 31.887C121.816 32.4751 120.257 33.5451 118.823 35.4429" fill="white"/>
<path d="M129.328 32.1385C129.034 33.2779 126.895 33.9 125.849 33.7105C124.804 33.521 124.223 32.7062 124.248 31.8872C124.254 31.6927 124.304 31.4626 124.376 31.2251C124.808 30.9857 125.225 30.7395 125.607 30.4779C126.015 30.1996 127.009 29.9708 127.147 30.0369C127.287 29.9743 128.372 30.2377 128.773 30.5263C128.975 30.6722 129.188 30.8133 129.406 30.9519C129.447 31.2737 129.447 31.6787 129.328 32.1385Z" fill="#E07B4D"/>
<path d="M131.141 49.1033L128.673 49.1211L128.678 49.8751L131.146 49.8572L131.141 49.1033Z" fill="#003C61"/>
<path d="M124.244 49.1531L121.776 49.1709L121.782 49.9249L124.249 49.907L124.244 49.1531Z" fill="#003C61"/>
<path d="M122.079 41.7004L120.091 51.8203L128.389 53.4605L130.377 43.3406L122.079 41.7004Z" fill="#CCCDCE"/>
<path d="M122.546 42.5699L120.852 51.1934L127.923 52.591L129.617 43.9676L122.546 42.5699Z" fill="#CCCDCE"/>
<path d="M124.476 42.1734L124.215 43.5049L127.717 44.1972L127.979 42.8658L124.476 42.1734Z" fill="#CCCDCE"/>
<path d="M120.067 39.7864C119.905 40.3214 118.83 45.5492 118.83 45.5492C119.77 46.0482 123.952 47.5172 123.952 47.5172C124.129 48.4567 123.433 49.5883 123.433 49.5883C123.433 49.5883 120.812 49.1544 119.103 48.5739C118.316 48.3068 117.54 48.0019 116.95 47.6803C115.078 46.6604 117.288 39.7324 117.288 39.7324L120.067 39.7864Z" fill="#EC9B66"/>
<path d="M118.823 35.4424C118.009 36.5204 117.234 37.8656 116.612 39.5414C116.301 40.3781 115.948 42.4262 115.783 42.9159L119.538 43.9941C119.879 42.7622 119.826 43.1221 120.023 42.3679C120.095 42.0898 120.393 41.1216 120.506 40.8802" fill="white"/>
<path d="M125.509 47.6471C125.691 47.5072 125.96 47.3428 126.229 47.1626C127.103 46.5794 126.599 46.1826 126.599 46.1826L125.511 46.7444L124.678 47.1535C123.993 47.2991 122.978 47.1702 122.978 47.1702L122.653 49.4473L123.346 49.5736C123.405 49.5886 123.413 49.5911 123.443 49.6063L124.715 50.1901L124.716 50.1906L126.439 50.9997C126.644 51.1068 126.854 51.1608 126.961 50.9552L126.981 50.9175C127.087 50.7119 126.916 50.583 126.711 50.4759L126.01 50.067L127.419 50.7288C127.624 50.836 127.834 50.8899 127.941 50.6843L127.961 50.6466C128.067 50.441 127.896 50.3121 127.691 50.205L127.552 50.124L128.349 50.4472C128.559 50.5432 128.772 50.5859 128.868 50.3747L128.885 50.336C128.981 50.1248 128.803 50.0054 128.592 49.9094L127.553 49.3758L128.387 49.6164C128.606 49.6898 128.822 49.7102 128.895 49.4904L128.908 49.45C128.982 49.2302 128.792 49.1297 128.573 49.0561L125.848 47.9995C125.717 47.8902 125.608 47.7666 125.509 47.6471Z" fill="#EEF0F6"/>
<path d="M66.3795 35.623C66.4432 36.2594 67.6082 42.2513 67.6082 42.2513C68.8197 42.3615 73.8781 42.0605 73.8781 42.0605C74.4775 42.9737 74.2419 44.4753 74.2419 44.4753C74.2419 44.4753 71.2851 45.1777 69.2261 45.3217C68.2787 45.3881 67.3255 45.4097 66.5619 45.3316C64.1381 45.084 63.4233 36.796 63.4233 36.796L66.3795 35.623Z" fill="#EC9B66"/>
<path d="M62.5858 51.8545L57.5712 52.3007C57.574 53.9625 57.4582 55.8245 57.5476 58.1556C57.7332 62.9956 57.7726 70.6246 57.9307 75.4854C58.0371 78.7546 57.9521 81.8256 57.8414 83.6419L60.3128 83.61C61.098 77.1006 62.7659 58.9458 62.5858 51.8545Z" fill="#EC9B66"/>
<path d="M48.564 83.4013H50.8058C50.8058 83.4013 58.9684 52.4366 58.5592 52.4362L52.3123 52.3076C52.3107 53.2554 48.564 83.4013 48.564 83.4013Z" fill="#EC9B66"/>
<path d="M63.4202 51.9697L56.792 52.4069C56.792 52.4163 56.7922 52.4268 56.7922 52.4365L59.0535 52.5014C59.196 52.5016 58.2829 57.7758 57.0328 62.3869C57.1183 64.4055 57.5684 79.4631 57.6628 81.581C57.6628 81.581 57.8727 82.4033 60.7512 81.581C61.3249 75.8789 63.5091 55.4699 63.4202 51.9697Z" fill="white"/>
<path d="M62.5856 51.8542C62.5856 49.6038 60.2076 49.5146 57.2744 49.5146C54.341 49.5146 51.9633 49.6038 51.9633 51.8542C51.9633 52.0697 51.9916 52.2796 52.0335 52.486C51.9185 53.7245 49.4543 75.0877 48.564 81.6923C49.1851 81.8567 50.9243 81.8744 51.6066 81.6937C51.9023 80.6279 55.904 66.5162 56.1983 65.4446C56.4872 64.393 56.7676 63.3661 57.0329 62.3872C57.5264 60.5672 58.4467 57.3805 58.7908 56.0463C61.2281 55.6767 62.5856 53.8326 62.5856 51.8542Z" fill="white"/>
<path d="M59.7272 52.3003C56.4129 52.8552 53.2842 51.8998 51.8545 51.3527L51.9272 52.3306C51.9403 52.5063 52.0592 52.6567 52.2272 52.7082C53.7113 53.1632 60.7286 55.0974 63.5829 51.9443C63.6513 51.8689 63.6879 51.7707 63.6903 51.6687C63.7033 51.1067 63.7207 50.5252 63.7408 49.9307C62.9139 50.9769 61.6454 51.9789 59.7272 52.3003Z" fill="white"/>
<path d="M51.3352 83.4493L52.6354 78.9319C52.629 78.7881 52.4935 78.6759 52.3313 78.6798L48.3527 78.7521C48.2096 78.7556 48.0901 78.8487 48.0682 78.9742C48.0351 79.1639 47.6589 83.3399 47.6117 83.6155C47.2614 83.8743 47.0304 84.2945 47.0288 84.7722L47.0259 85.6539H52.2005L52.2034 84.7722C52.2056 84.1705 51.8451 83.6584 51.3352 83.4493Z" fill="white"/>
<path d="M52.199 86.1152H47.0244L47.0281 85.6035H52.2027L52.199 86.1152Z" fill="#003C61"/>
<path d="M65.3902 86.0854H57.0358C56.9686 86.0854 56.9181 86.024 56.9306 85.9579L57.0037 85.5762H65.5382L65.5446 85.9274C65.5464 86.0143 65.4766 86.0854 65.3902 86.0854Z" fill="#003C61"/>
<path d="M63.4115 84.2805L63.2764 84.2589C59.8908 83.9617 62.0076 79.1338 61.0627 78.68C60.9695 78.6353 60.6487 78.68 60.6487 78.68C59.7683 79.0856 58.4767 79.2298 57.348 78.6934C57.1907 78.694 57.0634 78.8224 57.0636 78.9804L57.1059 83.2186C57.1065 83.2831 57.1053 83.3478 57.102 83.4123L56.9868 85.6653L65.5277 85.6943C65.6687 84.3802 64.5839 84.2805 63.4115 84.2805Z" fill="white"/>
<path d="M60.5118 25.1702C60.5426 25.0349 60.5633 24.9098 60.576 24.8126C60.5879 24.7228 60.4978 24.655 60.4155 24.6919C60.2641 24.7597 60.0307 24.8571 59.7623 24.944C59.4089 25.0586 58.6391 25.0444 58.2761 25.0301C58.1864 25.0266 58.127 25.122 58.1701 25.2009C58.2258 25.3027 58.3071 25.4374 58.4102 25.5775C58.7744 25.5528 59.4348 25.499 59.781 25.4156C60.0007 25.3626 60.2748 25.2637 60.5118 25.1702Z" fill="white"/>
<path d="M59.3849 25.8664C59.1373 25.8276 58.8543 25.8734 58.6973 25.9065C58.9504 26.1496 59.2722 26.3393 59.6525 26.301C59.7371 26.2926 59.8118 26.2646 59.882 26.2291C59.7515 26.0685 59.5722 25.8956 59.3849 25.8664Z" fill="white"/>
<path d="M60.5117 25.1709C60.2748 25.2644 60.0005 25.3633 59.781 25.4165C59.4348 25.4999 58.7744 25.5536 58.4102 25.5784C58.4917 25.6892 58.589 25.8023 58.6974 25.9065C58.8545 25.8734 59.1375 25.8276 59.3851 25.8664C59.5723 25.8956 59.7516 26.0684 59.8822 26.2291C60.2393 26.0491 60.422 25.5658 60.5117 25.1709Z" fill="white"/>
<path d="M50.3374 31.3612C50.3928 31.3157 50.4503 31.2702 50.508 31.2245V31.2236L50.3374 31.3612Z" fill="#A5BCD3"/>
<path d="M51.2805 39.5196L51.5458 48.9332L51.8548 51.3523C53.0784 51.8205 55.5469 52.5846 58.3103 52.4484C58.7762 52.4255 59.2495 52.3798 59.7277 52.2999C61.6457 51.9787 62.9145 50.9765 63.7414 49.9305C63.844 46.9047 63.6054 44.0457 63.5247 40.0381L63.7434 41.3337C63.7434 41.3337 65.491 41.8318 67.5355 39.9121C67.5355 39.9121 67.2499 31.2366 60.9205 29.0021C60.4544 28.8231 59.9328 28.7123 59.9328 28.7123L58.4123 30.6954L58.7754 31.2222C58.6604 31.2636 58.5397 31.2984 58.4109 31.3227C58.3795 31.3287 58.344 31.3315 58.3107 31.3361C57.1881 31.4895 55.0675 30.8602 54.7605 29.705C54.633 29.2252 54.6297 28.8014 54.6701 28.4648C54.3921 28.6443 54.1003 28.8282 53.8043 29.0142L53.7979 29.0023C52.4304 29.4852 51.3448 30.2686 50.4834 31.2003" fill="#A5BCD3"/>
<path d="M53.7969 29.0026C53.7969 29.0026 52.6317 32.9567 58.1182 32.9567C63.6047 32.9567 61.2084 29.1107 61.2084 29.1107L60.0489 28.7442L54.9573 28.2754L53.7969 29.0026Z" fill="white"/>
<path d="M54.7598 29.7055C55.076 30.8949 57.3182 31.5294 58.4104 31.3232C59.5026 31.117 60.1034 30.2607 60.0715 29.4041C60.0642 29.2008 60.0095 28.9604 59.9321 28.7128C59.4792 28.4658 59.0412 28.2112 58.6389 27.9407C58.2104 27.6525 57.169 27.4209 57.025 27.4912C56.8786 27.4267 55.7458 27.7106 55.3288 28.0153C55.1179 28.1693 54.8967 28.3187 54.6694 28.4654C54.629 28.802 54.6323 29.2257 54.7598 29.7055Z" fill="#EC9B66"/>
<path d="M54.6693 28.4648C54.6693 28.4648 53.6909 31.1418 57.4764 31.8713C61.2617 32.6005 60.6718 28.9106 60.6718 28.9106L59.932 28.7123L56.6742 29.1424L54.6693 28.4648Z" fill="#EC9B66"/>
<path d="M55.6824 29.0347C55.8074 30.309 59.2823 31.1898 59.1874 29.1366L58.8313 25.0395L55.5557 24.8652C55.8345 26.6368 55.9187 28.1392 55.6824 29.0347Z" fill="#EC9B66"/>
<path d="M59.3862 27.613C59.3862 27.613 59.8422 23.795 59.4622 22.7059L58.7979 18.2165C58.4181 17.1274 57.5004 16.1759 56.4649 16.3535L53.9239 16.7892C52.8882 16.9667 52.1441 18.2767 52.5242 19.3658L54.9851 25.6904C55.365 26.7798 56.7199 28.0452 59.3862 27.613Z" fill="#E07B4D"/>
<path d="M59.4205 27.6099L59.4893 27.6041C60.9847 27.3477 61.756 25.682 61.5003 24.1815L60.781 17.362C60.7155 16.9783 60.3492 16.7179 59.9667 16.7836L54.8943 17.6533C54.5118 17.7188 53.7845 18.17 53.8498 18.5537L55.2206 24.3996C55.5728 26.4658 57.3612 27.963 59.4205 27.6099Z" fill="#EC9B66"/>
<path d="M60.6734 21.5809C60.7632 21.9669 60.6406 22.3253 60.3997 22.3816C60.1589 22.438 59.8909 22.1706 59.8014 21.7848C59.7116 21.3988 59.8342 21.0403 60.0751 20.9841C60.3157 20.9276 60.5837 21.195 60.6734 21.5809Z" fill="#17213F"/>
<path d="M57.2279 22.3203C57.3367 22.7011 57.2324 23.0654 56.9948 23.1337C56.7573 23.2021 56.4762 22.9488 56.3673 22.5679C56.2585 22.187 56.3628 21.8228 56.6004 21.7544C56.8382 21.6858 57.1191 21.9392 57.2279 22.3203Z" fill="#17213F"/>
<path d="M60.5216 20.0452C60.1588 20.0654 59.8232 20.1285 59.4853 20.2426C59.3434 20.2906 59.1914 20.2032 59.1567 20.0572L59.1565 20.0568C59.1276 19.9344 59.189 19.8051 59.3054 19.7587C59.6959 19.603 60.0984 19.5257 60.5127 19.5294C60.6386 19.5305 60.7425 19.6306 60.7583 19.7558C60.777 19.9025 60.6688 20.037 60.5216 20.0452Z" fill="#17213F"/>
<path d="M57.0537 20.8781C56.6508 20.9195 56.2826 21.0082 55.9135 21.1557C55.7744 21.2114 55.6182 21.1308 55.5763 20.9868L55.5667 20.9537C55.5315 20.8329 55.5866 20.7005 55.7005 20.6477C56.1202 20.4535 56.5574 20.3466 57.0126 20.3293C57.1385 20.3245 57.2475 20.4191 57.2697 20.5435L57.2756 20.5767C57.3013 20.7221 57.2003 20.8628 57.0537 20.8781Z" fill="#17213F"/>
<path d="M56.2227 23.3234C56.2227 23.3234 56.3007 22.9561 56.9038 22.7634C57.5066 22.5708 58.1154 22.9604 58.1154 22.9604L57.3039 23.5207L56.2227 23.3234Z" fill="#EC9B66"/>
<path d="M59.3193 22.5724C59.3193 22.5724 59.3976 22.2051 60.0004 22.0125C60.6033 21.8199 61.2121 22.2094 61.2121 22.2094L60.4006 22.7697L59.3193 22.5724Z" fill="#EC9B66"/>
<path d="M54.4838 19.1248C54.4838 19.1248 57.1412 19.1932 58.9118 18.8127C59.8235 18.6168 60.3707 18.4122 60.6869 18.26C60.9232 18.1463 61.0374 17.8752 60.9594 17.6243C60.768 17.0077 60.3633 15.7962 59.8886 14.9129C59.5992 14.3748 58.8642 14.2871 58.4479 14.7337C57.9252 15.2944 57.066 15.9699 55.846 16.1724C53.6485 16.5372 52.7458 16.6122 52.0713 18.2074C51.3968 19.8025 52.7953 21.7848 53.7017 23.2794L54.3129 23.1156C54.3127 23.115 54.2784 22.1336 54.4838 19.1248Z" fill="#17213F"/>
<path d="M53.2239 24.4825C53.6927 25.141 54.4112 25.4321 54.829 25.1326C54.8703 25.1031 54.9071 25.0689 54.9393 25.0306C55.2346 24.681 55.1594 23.9916 54.737 23.3979C54.2685 22.7393 53.5498 22.4482 53.132 22.7477C52.7143 23.0473 52.7554 23.8239 53.2239 24.4825Z" fill="#E07B4D"/>
<path d="M54.3062 22.9449L54.3113 22.9433C54.3113 22.9433 54.3096 22.9062 54.3111 22.8691C54.955 23.2204 55.6969 23.7275 55.8515 24.2289L55.5455 24.3239C55.4731 24.0887 55.2006 23.8322 54.8585 23.5912C54.8213 23.5263 54.7823 23.4616 54.7374 23.3984C54.6086 23.2175 54.461 23.0657 54.3062 22.9449Z" fill="white"/>
<path d="M54.8529 25.1113C55.2329 25.5664 55.791 26.0789 56.4179 26.1442L56.3877 26.4398C56.3208 26.433 56.2545 26.4217 56.189 26.4069C55.5227 26.254 54.9553 25.7065 54.5742 25.2388C54.6668 25.2222 54.7531 25.1878 54.8292 25.1332C54.8379 25.1268 54.8444 25.1181 54.8529 25.1113Z" fill="white"/>
<path d="M58.9745 24.4568C59.0316 24.443 59.5379 24.3132 59.7118 24.013C59.7734 23.9069 59.788 23.7891 59.7543 23.6723C59.6418 23.2828 59.1533 23.2302 58.9313 23.2267L58.5519 22.1016L58.2891 22.1908L58.7353 23.5145L58.8426 23.5067C58.8484 23.5065 59.4081 23.4737 59.4876 23.7496C59.5003 23.7941 59.4956 23.832 59.4718 23.8732C59.3743 24.0413 59.0242 24.1583 58.9092 24.1861L58.9745 24.4568Z" fill="#E07B4D"/>
<path d="M55.1704 24.2065C55.1704 24.2065 59.1699 22.7546 61.4908 23.2002C61.4908 23.2002 62.44 27.1943 59.6134 27.5789C55.3357 28.1609 55.1704 24.2065 55.1704 24.2065Z" fill="white"/>
<path d="M62.7878 36.8936H59.6626V37.4636H62.7878V36.8936Z" fill="white"/>
<path d="M51.9834 56.5675C51.9834 56.5675 54.4474 56.9884 55.1552 54.4111" stroke="white" stroke-width="2" stroke-miterlimit="10"/>
<path d="M62.9677 56.5675C62.9677 56.5675 60.5037 56.9884 59.7959 54.4111" stroke="white" stroke-width="2" stroke-miterlimit="10"/>
<path d="M50.81 38.1836C50.6942 38.8125 50.1478 44.8926 50.1478 44.8926C51.2806 45.3374 56.222 46.4631 56.222 46.4631C56.5439 47.5078 55.9004 48.8841 55.9004 48.8841C55.9004 48.8841 52.8658 48.7316 50.8482 48.2941C49.9199 48.0926 48.9985 47.8471 48.2869 47.5584C46.028 46.6428 47.645 38.4833 47.645 38.4833L50.81 38.1836Z" fill="#EC9B66"/>
<path d="M50.4829 31.2002C47.3577 34.5807 47.1821 39.9121 47.1821 39.9121C49.2268 41.8319 50.9742 41.3337 50.9742 41.3337L51.2804 39.5199" fill="#A5BCD3"/>
<path d="M75.5778 41.5079C75.7082 41.2797 75.9191 40.9876 76.1244 40.6782C76.7893 39.6764 76.0838 39.4805 76.0838 39.4805L75.1819 40.5552L74.4832 41.3555C73.8241 41.8124 72.7485 42.1228 72.7485 42.1228L73.135 44.7182L74.1372 44.4449C74.1717 44.4562 74.2039 44.4723 74.2413 44.4754L75.8577 44.5429H75.8587L78.033 44.634C78.2964 44.6562 78.5418 44.6204 78.564 44.3561L78.5681 44.3077C78.5903 44.0434 78.3529 43.9832 78.0897 43.961L77.1696 43.84L78.948 43.9144C79.2114 43.9367 79.4568 43.9006 79.4789 43.6365L79.4831 43.5881C79.5052 43.324 79.2679 43.2637 79.0046 43.2414L78.8225 43.2175L79.805 43.206C80.0691 43.214 80.3124 43.165 80.3204 42.9001L80.3218 42.8515C80.3299 42.5863 80.0896 42.539 79.8256 42.5309L78.4944 42.4279L79.48 42.3128C79.7436 42.2932 79.9804 42.2192 79.9609 41.9547L79.9572 41.9061C79.9377 41.6418 79.6939 41.6196 79.4303 41.6389L76.0901 41.7304C75.9039 41.6725 75.7347 41.5903 75.5778 41.5079Z" fill="#EEF0F6"/>
<path d="M58.0083 46.4081C58.1968 46.2254 58.4806 46.004 58.7639 45.7642C59.681 44.9882 59.058 44.6025 59.058 44.6025L57.8931 45.3825L56.9997 45.9555C56.2396 46.21 54.7983 46.1311 54.7983 46.1311L54.8883 48.8171L55.809 48.8257C55.839 48.8461 55.8655 48.8707 55.9006 48.8842L57.4342 49.4013L57.4352 49.4017L59.498 50.0974C59.7448 50.1923 59.9904 50.2265 60.0851 49.9791L60.1025 49.9336C60.1972 49.686 59.9861 49.5618 59.7393 49.4668L58.8892 49.0933L60.5764 49.6623C60.8232 49.7573 61.0688 49.7915 61.1637 49.5439L61.1811 49.4985C61.2758 49.2511 61.0647 49.1267 60.8179 49.0317L60.6495 48.9578L61.5963 49.2215C61.8476 49.3033 62.0949 49.3241 62.1762 49.0717L62.1912 49.0254C62.2725 48.773 62.055 48.6603 61.8035 48.5785L60.5536 48.1074L61.532 48.2726C61.7908 48.3276 62.0386 48.3227 62.0934 48.0633L62.1035 48.0158C62.1583 47.7564 61.9304 47.667 61.6717 47.6118L58.4385 46.7653C58.2759 46.6572 58.136 46.5309 58.0083 46.4081Z" fill="#EEF0F6"/>
<path d="M95.1931 44.8451C95.1931 44.8451 96.8734 31.1086 99.5261 31.0532C102.179 30.9978 100.284 36.3012 100.284 36.3012L97.8029 44.2015C97.6579 44.663 97.2249 44.9716 96.743 44.9567L95.1705 44.9085C95.1541 44.857 95.1931 44.8451 95.1931 44.8451Z" fill="#EC9B66"/>
<path d="M97.3118 41.9678L95.1737 42.7374C91.1777 43.4613 87.7862 43.8708 87.6511 43.9106C87.516 43.9505 89.511 45.3995 89.3757 45.4395C89.2872 45.4657 94.3626 45.3375 97.1562 44.791C98.1108 44.6042 97.8057 43.5824 97.1644 42.9156L97.3118 41.9678Z" fill="#EC9B66"/>
<path d="M98.2342 48.9813L97.757 51.0176L97.2166 67.0675L97.1055 84.533L98.8765 84.3509L100.665 65.6947L101.786 47.4551L98.2342 48.9813Z" fill="#FBBA8F"/>
<path d="M101.17 53.388L102.079 53.0254L102.017 54.9958L101.179 54.5117C101.169 53.7979 101.17 53.388 101.17 53.388Z" fill="#5D97B7"/>
<path d="M97.1197 66.7011C97.1197 66.7011 97.1186 66.5431 97.0919 66.2584C96.1665 56.3642 96.711 52.5606 97.7979 47.4522L97.8675 47.0781L101.854 47.4055C101.854 47.4055 103.698 49.2172 103.643 51.592C103.633 52.0201 103.548 52.8006 103.415 53.7904L102.365 52.9108L102.079 53.0251L102.08 52.9909C102.08 52.9909 101.337 52.6683 100.893 52.2038C100.893 52.2038 100.884 53.2241 101.169 54.5063L101.178 54.5114C101.204 56.3586 101.307 60.245 101.708 64.3595C101.419 66.018 101.215 67.1493 101.215 67.1493C101.215 67.1493 101.686 69.3482 101.517 71.2392C101.347 73.1305 99.0892 83.6829 99.0892 83.6829C99.0892 83.6829 98.4687 84.1074 97.0498 83.5601C97.0503 83.5601 96.6618 72.8287 97.1197 66.7011Z" fill="white"/>
<path d="M100.894 52.2041C101.337 52.6686 102.08 52.9912 102.08 52.9912L102.079 53.0254L101.17 53.388C101.17 53.388 101.168 53.7981 101.178 54.5119L101.17 54.5068C100.884 53.2242 100.894 52.2041 100.894 52.2041Z" fill="#E2EAED"/>
<path d="M101.17 53.3878L102.366 52.9111L103.416 53.7908C103.027 56.6842 102.229 61.3757 101.709 64.3598C101.153 58.6554 101.17 53.3878 101.17 53.3878Z" fill="#E2EAED"/>
<path d="M102.365 47.8184L104.396 70.5484L106.153 83.7215L107.783 83.8284L107.617 70.1339L106.993 49.3634L102.365 47.8184Z" fill="#FBBA8F"/>
<path d="M106.857 46.3164C106.857 46.3164 108.134 48.5291 108.663 51.6421C109.431 56.1576 107.927 66.4828 107.927 66.4828C107.927 66.4828 108.677 68.4429 108.753 70.3401C108.829 72.2374 107.906 83.1303 107.906 83.1303C107.906 83.1303 107.461 83.5322 105.983 83.1741C105.983 83.1741 104.376 72.6764 104.039 66.5409C104.039 66.5409 102.593 59.272 102.158 53.8739L101.517 46.6479L106.857 46.3164Z" fill="white"/>
<path d="M108.24 84.2557C108.231 84.1873 108.243 83.8553 108.265 83.4049C108.277 83.1594 108.082 82.9521 107.837 82.9521H105.996C105.743 82.9521 105.544 83.1707 105.569 83.4235L105.633 84.1041C105.277 84.2949 105.024 84.7619 105.025 85.3109L105.027 86.1151H108.65L108.648 85.3109C108.647 84.8752 108.485 84.4918 108.24 84.2557Z" fill="#003862"/>
<path d="M99.5454 84.6714C99.5039 84.4019 99.4082 83.9178 99.3505 83.6321C99.3261 83.5108 99.2049 83.435 99.0858 83.4675C98.8497 83.532 98.4633 83.6216 98.1388 83.6216C97.6323 83.6216 97.2249 83.403 96.9074 83.4791C96.5902 83.5551 96.444 84.2882 96.444 84.2882C95.7432 84.5606 94.7759 84.5445 94.7759 84.5445C94.7759 84.5445 94.6775 84.5486 94.5278 84.5614C94.665 84.7664 94.8001 85.0484 94.8808 85.4218H99.5696C99.5759 85.1561 99.5741 84.8576 99.5454 84.6714Z" fill="#003862"/>
<path d="M94.8806 85.422C94.7999 85.0483 94.6648 84.7663 94.5276 84.5615C94.3036 84.5807 93.962 84.6202 93.64 84.7C93.1033 84.833 93.0018 85.422 93.0018 85.422L92.9946 85.9875H94.9506H99.5448C99.5448 85.9875 99.5622 85.726 99.5692 85.422H94.8806Z" fill="white"/>
<path d="M99.6951 86.1145H92.8782L92.8685 85.9977C92.7729 84.8375 93.223 84.5802 94.2047 84.4678L94.2334 84.7207C93.2975 84.8277 93.0663 85.047 93.1131 85.8599H99.4439L99.4456 85.6479L99.6992 85.6504L99.6951 86.1145Z" fill="#003C61"/>
<path d="M104.864 31.5355L103.149 31.4802C102.856 31.4708 102.627 31.2254 102.636 30.9319L102.774 26.6055L105.549 26.6945L105.411 31.0209C105.401 31.3146 105.157 31.5449 104.864 31.5355Z" fill="#EC9B66"/>
<path d="M102.639 28.4348C103.992 28.2984 105.365 28.6095 105.43 29.6788C105.43 29.6788 105.582 27.2689 105.671 26.5479C105.671 26.5479 104.139 28.5648 102.639 28.4348Z" fill="#E07B4D"/>
<path d="M106.518 45.5837C106.518 45.5849 106.517 45.5847 106.517 45.5862C106.49 45.538 106.504 45.5604 106.518 45.5837Z" fill="#2C4E56"/>
<path d="M102.563 28.4793C102.563 28.4793 101.903 24.8788 102.199 23.8212L102.563 19.5158C102.859 18.4582 103.674 17.4991 104.669 17.6058L107.109 17.8676C108.104 17.9743 108.889 19.1745 108.592 20.2321L106.631 26.389C106.334 27.4466 105.122 28.7302 102.563 28.4793Z" fill="#E07B4D"/>
<path d="M102.526 28.4761L102.46 28.4747C101.024 28.3206 99.7531 26.9828 99.9067 25.5418L100.445 20.4862C100.582 19.2016 101.742 18.2628 103.023 18.4L106.234 18.7445C106.601 18.7838 107.319 19.1688 107.28 19.5376L106.326 25.1741C106.114 27.1583 104.504 28.6883 102.526 28.4761Z" fill="#EC9B66"/>
<path d="M103.408 26.2045C103.168 26.6635 102.66 26.9434 102.125 26.8808C101.591 26.8182 101.378 26.4245 101.269 25.9336C101.996 26.2006 102.626 26.229 103.408 26.2045Z" fill="#D31E1E"/>
<path d="M103.407 26.2026C103.013 26.051 102.441 25.8537 102.042 26.0205C101.882 25.7923 101.487 25.8821 101.267 25.9328C101.519 26.0251 101.718 26.2702 101.985 26.3353C102.454 26.449 102.957 26.3522 103.407 26.2026Z" fill="#E82323"/>
<path d="M105.043 20.346H105.044C104.436 19.1881 103.99 18.2317 103.99 18.2317L105.705 17.3467C112.406 18.3023 106.693 26.2749 106.693 26.2749C106.761 25.5706 106.902 24.8846 106.796 24.0921C105.302 22.4374 105.043 20.346 105.043 20.346Z" fill="#603E1D"/>
<path d="M108.232 25.1366C107.826 25.7904 107.161 26.1099 106.746 25.8504C106.705 25.8248 106.668 25.7945 106.635 25.7601C106.333 25.4456 106.364 24.786 106.73 24.1966C107.136 23.5428 107.801 23.2232 108.216 23.4828C108.631 23.7424 108.638 24.4827 108.232 25.1366Z" fill="#E07B4D"/>
<path d="M101.626 23.4994C101.626 23.4994 101.996 22.6068 101.435 22.4892C100.971 22.3917 100.826 23.2448 100.879 23.4522C100.879 23.4522 101.221 23.2697 101.626 23.4994Z" fill="#17213F"/>
<path d="M103.824 23.909C103.824 23.909 103.847 22.9425 104.407 23.0632C104.871 23.1633 104.658 24.0019 104.526 24.1698C104.526 24.1698 104.301 23.834 103.824 23.909Z" fill="#17213F"/>
<path d="M105.794 30.1644C105.48 29.9263 104.602 29.6593 104.483 29.6953C104.373 29.6377 103.46 29.7351 103.108 29.91C100.965 30.9752 98.1473 30.9686 97.9652 32.8807C97.9652 32.8807 97.4931 34.7681 98.5573 34.8688L104.458 39.2037L109.34 35.8898C110.404 35.9905 110.574 34.6241 110.574 34.6241C110.752 32.7116 107.701 31.6132 105.794 30.1644Z" fill="#EC9B66"/>
<path d="M108.405 38.0862L107.388 38.0442C106.753 36.9223 106.713 34.0791 106.713 34.0791C106.713 34.0791 104.823 35.3843 102.63 35.3843C100.436 35.3843 100.309 34.0791 100.309 34.0791C100.309 34.0791 96.1288 38.1837 98.0607 40.6971C99.1819 42.1555 98.0232 46.5464 97.7232 48.105C98.5788 48.3955 99.9313 48.4762 100.795 48.4762C103.728 48.4762 106.579 47.5371 107.31 47.2275L106.413 44.4143L108.405 38.0862Z" fill="white"/>
<path d="M98.4053 39.9248C98.4053 39.9248 99.1794 40.7329 101.126 40.3922C101.126 40.3922 100.052 41.272 98.6985 40.8887L98.4053 39.9248Z" fill="#003C61"/>
<path d="M102.783 40.2395C102.783 40.2395 105.369 41.124 106.797 40.0098L106.095 41.1312C106.095 41.1312 104.07 41.3745 102.783 40.2395Z" fill="#003C61"/>
<path d="M100.939 48.4434C100.939 48.4434 104.621 45.1445 105.945 41.0544C107.293 39.7757 107.367 37.3748 107.832 35.6133L108.405 38.1016L106.413 44.4148L107.31 47.228C107.31 47.228 104.441 48.7147 100.939 48.4434Z" fill="#003C61"/>
<path d="M110.224 47.2795C110.224 47.2795 112.156 33.6526 109.599 32.9429C107.041 32.2333 107.575 37.8418 107.575 37.8418L108.13 46.8214L109.991 48.0675C110.02 48.0217 110.224 47.2795 110.224 47.2795Z" fill="#EC9B66"/>
<path d="M106.416 34.5792C106.416 34.5792 106.899 32.6498 107.378 31.1357C107.378 31.1357 107.613 31.1357 107.786 31.2896C107.786 31.2896 107.084 33.3379 106.768 34.9902C106.768 34.9902 106.519 34.9313 106.416 34.5792Z" fill="white"/>
<path d="M99.6812 34.5725C99.6812 34.5725 99.7844 32.6043 99.9777 30.918C99.9777 30.918 100.199 30.7429 100.424 30.8397C100.424 30.8397 100.11 33.1323 100.103 34.9295C100.103 34.9295 99.8469 34.92 99.6812 34.5725Z" fill="white"/>
<path d="M107.528 39.6221C107.528 39.6221 110.051 39.7453 111.286 39.2041C111.286 39.2041 112.258 32.0901 107.377 31.1357L106.679 34.2329V35.7135L107.528 39.6221Z" fill="white"/>
<path d="M96.342 38.5725C95.9742 38.4257 95.6083 38.2751 95.29 38.1356C95.29 38.1356 96.342 31.9836 99.5154 31.0078C96.9978 33.2742 96.4317 37.6878 96.342 38.5725Z" fill="#003C61"/>
<path d="M100.393 33.8049L100.003 35.0779L98.4765 39.386C98.4765 39.386 97.4014 38.9952 96.3423 38.5723C96.432 37.6876 96.9979 33.274 99.5157 31.0076C100.06 30.7592 100.672 30.5878 101.362 30.5225L100.393 33.8049Z" fill="white"/>
<path d="M102.379 25.1437C102.338 25.1338 101.976 25.0411 101.852 24.8262C101.808 24.7504 101.797 24.6661 101.821 24.5825C101.902 24.304 102.251 24.2663 102.41 24.2638L102.681 23.459L102.869 23.5228L102.55 24.4698L102.473 24.4643C102.469 24.4641 102.069 24.4406 102.012 24.6379C102.003 24.6696 102.006 24.6968 102.023 24.7263C102.093 24.8466 102.343 24.9302 102.426 24.9502L102.379 25.1437Z" fill="#E07B4D"/>
<path d="M107.075 23.767L107.07 23.7666C106.53 24.2439 105.915 24.8209 105.877 25.332L106.191 25.3542C106.209 25.1143 106.413 24.8098 106.688 24.5045C106.709 24.4345 106.732 24.3642 106.762 24.2942C106.845 24.0937 106.953 23.9164 107.075 23.767Z" fill="white"/>
<path d="M106.745 25.832C106.397 26.2966 105.877 26.827 105.265 26.9253L105.311 27.2118C105.376 27.2015 105.441 27.1869 105.504 27.1688C106.15 26.983 106.677 26.4179 107.025 25.941C106.933 25.9299 106.847 25.901 106.769 25.852C106.76 25.8465 106.753 25.8382 106.745 25.832Z" fill="white"/>
<path d="M106.257 25.1916C106.257 25.1916 102.326 23.7739 100.045 24.2089C100.045 24.2089 99.1115 28.1089 101.89 28.4843C106.095 29.0526 106.257 25.1916 106.257 25.1916Z" fill="white"/>
<path d="M106.928 25.7295C106.928 25.7295 106.437 26.9391 106.976 26.9391C107.514 26.9391 106.928 25.7295 106.928 25.7295Z" fill="white"/>
<path d="M107.96 44.0742L108.13 46.8216C107.703 50.8728 107.261 53.8438 107.261 53.9851C107.262 54.1264 109.012 53.3102 109.013 53.4518C109.013 53.5745 110.076 47.3768 110.4 45.893C110.435 45.7313 110.433 45.5735 110.295 45.4826L107.96 44.0742Z" fill="#EC9B66"/>
<path d="M106.474 53.7886C106.27 53.8471 106.002 53.9565 105.72 54.0582C104.81 54.3876 104.792 53.7954 104.792 53.7954L105.806 53.2938L106.566 52.8989C107.05 52.4687 107.551 51.8555 107.551 51.8555L109.191 52.4949L109.058 53.2272C109.061 53.2565 109.054 53.2804 109.049 53.3104L108.79 54.5942L108.79 54.5951L108.442 56.322C108.408 56.5333 108.333 56.7193 108.122 56.6858L108.084 56.6796C107.873 56.646 107.872 56.4478 107.905 56.2365L107.988 55.4899L107.703 56.9025C107.67 57.1138 107.595 57.2998 107.384 57.2663L107.345 57.2601C107.135 57.2265 107.133 57.0283 107.167 56.817L107.183 56.6693L106.985 57.4395C106.94 57.6488 106.855 57.8305 106.646 57.7856L106.608 57.7774C106.399 57.7327 106.409 57.5347 106.453 57.3254L106.63 56.2589L106.35 57.0114C106.284 57.215 106.18 57.3868 105.977 57.3204L105.94 57.3083C105.737 57.242 105.767 57.0461 105.833 56.8425L106.549 54.2344C106.539 54.0768 106.508 53.9278 106.474 53.7886Z" fill="#EEF0F6"/>
<path d="M105.043 20.3456C105.043 20.3456 103.12 22.048 100.341 21.4657C100.341 21.4657 100.111 16.6494 105.705 17.3463L105.043 20.3456Z" fill="#603E1D"/>
<path d="M98.9778 45.6953H100.578V45.3272H98.9778V45.6953Z" fill="#003C61"/>
<path d="M104.182 45.6953H105.782V45.3272H104.182V45.6953Z" fill="#02354F"/>
<path d="M109.025 21.8243L100.799 19.8762C100.668 19.8451 100.586 19.7132 100.617 19.5814L100.751 19.0135C101.131 17.4009 102.741 16.4024 104.348 16.7831L106.664 17.3315C108.584 17.7861 109.773 19.7161 109.319 21.6422C109.288 21.7739 109.157 21.8554 109.025 21.8243Z" fill="white"/>
<path d="M109.723 20.4384C109.542 20.4384 109.334 20.3943 109.118 20.2894L109.181 20.1596C109.591 20.3597 110.001 20.3131 110.145 20.1555C110.21 20.0844 110.213 19.9992 110.155 19.9017C110.119 19.8416 110.07 19.8061 110.004 19.7938C109.784 19.7536 109.442 19.9736 109.328 20.0622L109.24 19.9485C109.259 19.9337 109.701 19.5898 110.03 19.6521C110.138 19.6722 110.221 19.7312 110.279 19.8278C110.369 19.9796 110.359 20.1347 110.251 20.253C110.149 20.3644 109.958 20.4384 109.723 20.4384Z" fill="white"/>
<path d="M109.763 21.3153C109.744 21.3153 109.724 21.3139 109.705 21.3106C109.441 21.2684 109.122 20.9287 109.05 20.3826L109.193 20.3636C109.252 20.8172 109.517 21.1345 109.727 21.1683C109.823 21.1831 109.895 21.1392 109.944 21.037C109.975 20.9738 109.977 20.9128 109.95 20.851C109.864 20.6444 109.491 20.4796 109.355 20.4335L109.401 20.2969C109.423 20.3045 109.954 20.4866 110.083 20.795C110.125 20.8959 110.122 20.9983 110.074 21.0997C110.007 21.2389 109.896 21.3153 109.763 21.3153Z" fill="white"/>
<path d="M101.362 30.5225C101.362 30.5225 102.343 35.2842 107.378 31.1353L107.529 34.79L103.409 37.5848C103.409 37.5848 99.097 37.3217 99.0709 37.0588C99.0446 36.7958 99.5076 33.7979 99.4465 33.719C99.3853 33.6401 99.5118 32.0341 99.8941 31.7195C100.276 31.4048 101.362 30.5225 101.362 30.5225Z" fill="white"/>
<path d="M101.362 30.5225L100.728 30.616C100.728 30.616 100.94 33.4295 103.407 33.6662C106.397 33.953 107.921 31.2748 107.921 31.2748L107.378 31.1353C107.378 31.1353 105.311 32.9189 103.646 32.8257C101.98 32.7326 101.362 30.5225 101.362 30.5225Z" fill="#003C61"/>
<path d="M87.5513 43.2938C87.3841 43.1313 87.1326 42.934 86.8815 42.7205C86.0688 42.0296 86.6225 41.6885 86.6225 41.6885L87.6554 42.3831L88.4475 42.8938C89.1221 43.1212 90.2303 43.5417 90.2303 43.5417L90.4253 45.4167L89.4995 45.4447C89.4728 45.4628 89.4494 45.4844 89.4182 45.4964L88.0554 45.9527L88.0545 45.9529L86.2215 46.5668C86.0022 46.6506 85.784 46.6805 85.7004 46.4605L85.685 46.4201C85.6014 46.2001 85.7891 46.0901 86.0084 46.0062L86.7638 45.6762L85.2645 46.1785C85.0452 46.2623 84.8269 46.2922 84.7433 46.0722L84.7279 46.0318C84.6444 45.8118 84.832 45.7018 85.0513 45.6179L85.2008 45.5526L84.3596 45.785C84.1362 45.8571 83.9167 45.8752 83.8448 45.6511L83.8317 45.6099C83.7598 45.3858 83.9532 45.2859 84.1766 45.214L85.2873 44.7978L84.4181 44.9427C84.1883 44.9911 83.9682 44.9861 83.9199 44.7558L83.9111 44.7136C83.8629 44.4833 84.0655 44.4042 84.2953 44.3558L87.1679 43.61C87.3133 43.5147 87.4377 43.4028 87.5513 43.2938Z" fill="#EEF0F6"/>
<path d="M81.0077 42.4577L84.6271 49.6856C84.7289 49.8889 84.9757 49.9709 85.1784 49.8688L90.0888 47.3939C90.2914 47.2917 90.3731 47.0441 90.2713 46.8408L86.6519 39.6128C86.55 39.4095 86.3032 39.3275 86.1006 39.4297L81.1902 41.9046C80.9876 42.0066 80.9058 42.2544 81.0077 42.4577Z" fill="#00273D"/>
<path d="M81.6918 42.7509L84.8011 48.9601C84.903 49.1635 85.1498 49.2455 85.3524 49.1433L89.4049 47.1008C89.6076 46.9986 89.6893 46.751 89.5874 46.5477L86.4783 40.3384C86.3764 40.1351 86.1296 40.0531 85.927 40.1553L81.8745 42.1978C81.6716 42.3 81.5899 42.5476 81.6918 42.7509Z" fill="white"/>
<path d="M82.8395 42.1568L82.4062 41.2916L84.7832 40.0938L85.2164 40.9589C85.254 41.0341 85.2238 41.1256 85.1489 41.1635L83.0434 42.2246C82.9685 42.2623 82.8773 42.232 82.8395 42.1568Z" fill="#CCCDCE"/>
<path d="M82.764 41.1113L82.6061 40.7961C82.5716 40.7273 82.5994 40.6435 82.6679 40.6089L84.0811 39.8967C84.1496 39.8621 84.2332 39.8899 84.2677 39.9587L84.4256 40.2739L82.764 41.1113Z" fill="#CCCDCE"/>
<path d="M133.285 53.3656C133.109 53.9519 132.895 54.5295 132.634 55.0903C132.401 55.247 132.198 55.4021 132.072 55.5371L131.25 56.065L130.151 56.7409C130.151 56.7409 130.232 57.4119 131.232 56.9422C131.541 56.7972 131.835 56.6447 132.06 56.557C132.113 56.7115 132.164 56.8771 132.191 57.0555L131.65 60.0923C131.596 60.3303 131.583 60.5558 131.82 60.61L131.864 60.6199C132.101 60.6739 132.2 60.4681 132.254 60.23L132.494 59.346L132.405 60.5754C132.376 60.8179 132.386 61.0436 132.627 61.0727L132.672 61.0781C132.913 61.1069 132.991 60.8918 133.02 60.6494L133.165 59.7539L133.162 59.9234C133.146 60.1669 133.168 60.3919 133.411 60.4079L133.455 60.4108C133.698 60.4269 133.764 60.2077 133.78 59.9642L133.957 58.3302L133.94 59.1868C133.924 59.4303 133.947 59.6552 134.189 59.6713L134.234 59.6742C134.477 59.6902 134.543 59.471 134.559 59.2276L134.774 57.23L134.775 57.2291L134.935 55.7441C134.937 55.7093 134.927 55.6778 134.922 55.6448L134.962 55.211C135.084 54.9728 135.254 54.6138 135.444 54.1486C134.625 53.3555 133.7 53.3281 133.285 53.3656Z" fill="#EEF0F6"/>
</svg>
