<svg width="23" height="23" viewBox="0 0 23 23" fill="none" xmlns="http://www.w3.org/2000/svg">
<g clip-path="url(#clip0_1048_4020)">
<path fill-rule="evenodd" clip-rule="evenodd" d="M12.5243 0.836189C12.3944 0.702894 12.239 0.596961 12.0675 0.524631C11.896 0.452302 11.7117 0.415039 11.5255 0.415039C11.3393 0.415039 11.1551 0.452302 10.9835 0.524631C10.812 0.596961 10.6567 0.702894 10.5267 0.836189L9.63668 1.74991C9.46151 1.9299 9.24099 2.05925 8.9984 2.12432C8.75581 2.18938 8.50016 2.18775 8.25842 2.11959L7.03082 1.77363C6.85164 1.72321 6.66418 1.70915 6.47948 1.7323C6.29478 1.75545 6.11658 1.81532 5.95538 1.9084C5.79418 2.00148 5.65323 2.12588 5.54085 2.27428C5.42847 2.42267 5.34693 2.59205 5.30102 2.77245L4.98575 4.00842C4.92394 4.25173 4.79762 4.47385 4.62011 4.65136C4.4426 4.82887 4.22048 4.95519 3.97717 5.017L2.7412 5.33088C2.5608 5.37678 2.39142 5.45833 2.24303 5.57071C2.09463 5.68309 1.97023 5.82403 1.87715 5.98523C1.78407 6.14643 1.7242 6.32463 1.70105 6.50933C1.6779 6.69403 1.69196 6.88149 1.74238 7.06068L2.08834 8.28967C2.1565 8.53141 2.15813 8.78706 2.09307 9.02965C2.028 9.27224 1.89865 9.49276 1.71866 9.66793L0.804939 10.5579C0.671644 10.6879 0.565711 10.8432 0.493381 11.0148C0.421052 11.1863 0.383789 11.3706 0.383789 11.5568C0.383789 11.7429 0.421052 11.9272 0.493381 12.0988C0.565711 12.2703 0.671644 12.4256 0.804939 12.5556L1.71866 13.447C1.89841 13.622 2.02761 13.8423 2.09267 14.0846C2.15773 14.3269 2.15623 14.5823 2.08834 14.8239L1.74238 16.0515C1.69196 16.2306 1.6779 16.4181 1.70105 16.6028C1.7242 16.7875 1.78407 16.9657 1.87715 17.1269C1.97023 17.2881 2.09463 17.429 2.24303 17.5414C2.39142 17.6538 2.5608 17.7353 2.7412 17.7813L3.97717 18.0965C4.22048 18.1583 4.4426 18.2847 4.62011 18.4622C4.79762 18.6397 4.92394 18.8618 4.98575 19.1051L5.29963 20.3411C5.34538 20.5216 5.42682 20.6911 5.53913 20.8397C5.65144 20.9882 5.79236 21.1128 5.95358 21.206C6.1148 21.2992 6.29305 21.3592 6.47782 21.3825C6.6626 21.4057 6.85015 21.3917 7.02943 21.3413L8.25842 20.9953C8.50004 20.927 8.75561 20.9251 8.99819 20.99C9.24077 21.0548 9.46136 21.1839 9.63668 21.3636L10.5267 22.2773C10.6567 22.4106 10.812 22.5166 10.9835 22.5889C11.1551 22.6612 11.3393 22.6985 11.5255 22.6985C11.7117 22.6985 11.896 22.6612 12.0675 22.5889C12.239 22.5166 12.3944 22.4106 12.5243 22.2773L13.4157 21.3636C13.5909 21.1841 13.8113 21.0552 14.0536 20.9904C14.2959 20.9256 14.5512 20.9273 14.7926 20.9953L16.0202 21.3413C16.1995 21.3917 16.387 21.4057 16.5718 21.3825C16.7566 21.3592 16.9348 21.2992 17.0961 21.206C17.2573 21.1128 17.3982 20.9882 17.5105 20.8397C17.6228 20.6911 17.7043 20.5216 17.75 20.3411L18.0653 19.1051C18.1271 18.8618 18.2534 18.6397 18.4309 18.4622C18.6084 18.2847 18.8305 18.1583 19.0739 18.0965L20.3098 17.7826C20.4903 17.7369 20.6599 17.6555 20.8084 17.5431C20.957 17.4308 21.0815 17.2899 21.1748 17.1287C21.268 16.9675 21.328 16.7892 21.3512 16.6045C21.3744 16.4197 21.3604 16.2321 21.31 16.0528L20.9641 14.8252C20.8957 14.5836 20.8939 14.3281 20.9587 14.0855C21.0235 13.8429 21.1526 13.6223 21.3324 13.447L22.2461 12.5556C22.3794 12.4256 22.4853 12.2703 22.5576 12.0988C22.63 11.9272 22.6672 11.7429 22.6672 11.5568C22.6672 11.3706 22.63 11.1863 22.5576 11.0148C22.4853 10.8432 22.3794 10.6879 22.2461 10.5579L21.3324 9.66793C21.1526 9.49261 21.0235 9.27202 20.9587 9.02944C20.8939 8.78686 20.8957 8.53129 20.9641 8.28967L21.31 7.06207C21.3604 6.8828 21.3744 6.69524 21.3512 6.51047C21.328 6.32569 21.268 6.14744 21.1748 5.98623C21.0815 5.82501 20.957 5.68409 20.8084 5.57177C20.6599 5.45946 20.4903 5.37803 20.3098 5.33227L19.0739 5.017C18.8305 4.95519 18.6084 4.82887 18.4309 4.65136C18.2534 4.47385 18.1271 4.25173 18.0653 4.00842L17.7514 2.77245C17.7055 2.59205 17.6239 2.42267 17.5116 2.27428C17.3992 2.12588 17.2582 2.00148 17.097 1.9084C16.9358 1.81532 16.7576 1.75545 16.5729 1.7323C16.3882 1.70915 16.2008 1.72321 16.0216 1.77363L14.794 2.11959C14.5521 2.18802 14.2961 2.18979 14.0533 2.12472C13.8104 2.05965 13.5897 1.93014 13.4143 1.74991L12.5243 0.836189ZM16.7888 9.17131C16.9886 8.97856 17.1037 8.71433 17.1086 8.43676C17.1136 8.15918 17.0081 7.89101 16.8154 7.69122C16.6226 7.49143 16.3584 7.3764 16.0808 7.37143C15.8032 7.36646 15.535 7.47196 15.3353 7.66471L9.56833 13.2336L7.73111 11.3991C7.53447 11.203 7.26799 11.0931 6.99028 11.0935C6.71258 11.0939 6.44641 11.2046 6.25032 11.4012C6.05423 11.5979 5.94429 11.8643 5.94469 12.1421C5.94508 12.4198 6.05577 12.6859 6.25241 12.882L8.81782 15.4404C9.01156 15.634 9.27348 15.7439 9.54735 15.7465C9.82121 15.7491 10.0852 15.6442 10.2826 15.4544L16.7888 9.17131Z" fill="#2CB24B"/>
</g>
<defs>
<clipPath id="clip0_1048_4020">
<rect x="0.366211" y="0.397461" width="22.32" height="22.32" rx="11.16" fill="white"/>
</clipPath>
</defs>
</svg>
